<svg width="32" height="31" viewBox="0 0 32 31" fill="none" xmlns="http://www.w3.org/2000/svg">
<path d="M12.2857 29C12.9958 29 13.5714 28.4244 13.5714 27.7143C13.5714 27.0042 12.9958 26.4286 12.2857 26.4286C11.5756 26.4286 11 27.0042 11 27.7143C11 28.4244 11.5756 29 12.2857 29Z" stroke="#FFCB47" stroke-width="3" stroke-linecap="round" stroke-linejoin="round"/>
<path d="M26.4288 29C27.1389 29 27.7145 28.4244 27.7145 27.7143C27.7145 27.0042 27.1389 26.4286 26.4288 26.4286C25.7187 26.4286 25.1431 27.0042 25.1431 27.7143C25.1431 28.4244 25.7187 29 26.4288 29Z" stroke="#FFCB47" stroke-width="3" stroke-linecap="round" stroke-linejoin="round"/>
<path d="M2 2H7.14286L10.5886 19.2157C10.7061 19.8077 11.0282 20.3394 11.4983 20.7178C11.9684 21.0962 12.5566 21.2973 13.16 21.2857H25.6571C26.2605 21.2973 26.8488 21.0962 27.3189 20.7178C27.789 20.3394 28.111 19.8077 28.2286 19.2157L30.2857 8.42857H8.42857" stroke="#FFCB47" stroke-width="3" stroke-linecap="round" stroke-linejoin="round"/>
</svg>
