<svg width="177" height="42" viewBox="0 0 177 42" fill="none" xmlns="http://www.w3.org/2000/svg">
<path d="M23.0915 0C23.0915 0 26.802 9.07726 10.8998 15.1744C2.25892 18.4865 -4.37778 26.9758 3.54643 40.0895C4.20269 34.2279 7.01666 21.3037 19.1166 18.3546C19.1166 18.3546 7.85471 22.5657 6.85987 41.6277C12.6467 42.4402 26.2185 42.9861 30.2479 31.2085C35.5688 15.6476 23.0915 0 23.0915 0Z" fill="#8DCE97"/>
<path d="M6.86512 41.5484C19.1501 36.6455 28.0889 25.16 29.3226 11.4489C26.8111 4.67443 23.0915 0 23.0915 0C23.0915 0 26.802 9.07726 10.8998 15.1744C2.25892 18.4865 -4.37778 26.9758 3.54643 40.0895C4.20269 34.2279 7.01666 21.3037 19.1166 18.3546C19.1159 18.3546 7.88753 22.5553 6.86512 41.5484Z" fill="#8DCE97"/>
<path d="M2.32035 15.477C2.95463 15.477 3.4688 14.9628 3.4688 14.3285C3.4688 13.6942 2.95463 13.1801 2.32035 13.1801C1.68607 13.1801 1.17188 13.6942 1.17188 14.3285C1.17188 14.9628 1.68607 15.477 2.32035 15.477Z" fill="#8DCE97"/>
<path d="M5.92967 14.0005C6.38271 14.0005 6.74997 13.6332 6.74997 13.1802C6.74997 12.7271 6.38271 12.3599 5.92967 12.3599C5.47664 12.3599 5.10938 12.7271 5.10938 13.1802C5.10938 13.6332 5.47664 14.0005 5.92967 14.0005Z" fill="#8DCE97"/>
<path d="M5.19136 7.43791C6.32396 7.43791 7.24212 6.51976 7.24212 5.38717C7.24212 4.25458 6.32396 3.33643 5.19136 3.33643C4.05877 3.33643 3.14062 4.25458 3.14062 5.38717C3.14062 6.51976 4.05877 7.43791 5.19136 7.43791Z" fill="#8DCE97"/>
<path d="M11.5078 10.7192C11.8703 10.7192 12.1641 10.4254 12.1641 10.063C12.1641 9.70055 11.8703 9.40674 11.5078 9.40674C11.1454 9.40674 10.8516 9.70055 10.8516 10.063C10.8516 10.4254 11.1454 10.7192 11.5078 10.7192Z" fill="#8DCE97"/>
<path d="M17.0049 8.25827C18.0469 8.25827 18.8916 7.41356 18.8916 6.37157C18.8916 5.32957 18.0469 4.48486 17.0049 4.48486C15.9629 4.48486 15.1182 5.32957 15.1182 6.37157C15.1182 7.41356 15.9629 8.25827 17.0049 8.25827Z" fill="#8DCE97"/>
<g opacity="0.8">
<path opacity="0.8" d="M50.7156 37.8956C48.8751 37.8956 47.2116 37.496 45.7251 36.6967C44.2562 35.8975 43.0971 34.7941 42.2476 33.3867C41.4159 31.9619 41 30.3721 41 28.6172C41 26.8623 41.4159 25.2811 42.2476 23.8737C43.0971 22.4489 44.2651 21.3369 45.7516 20.5376C47.2382 19.7384 48.9017 19.3387 50.7422 19.3387C52.1225 19.3387 53.3967 19.5646 54.5647 20.0164C55.7327 20.4681 56.7237 21.1284 57.5378 21.9972L56.2902 23.2221C54.839 21.78 53.0074 21.0589 50.7953 21.0589C49.3264 21.0589 47.9903 21.389 46.7869 22.0493C45.5835 22.7095 44.6367 23.6131 43.9465 24.7598C43.2741 25.9066 42.9378 27.1924 42.9378 28.6172C42.9378 30.042 43.2741 31.3277 43.9465 32.4745C44.6367 33.6213 45.5835 34.5248 46.7869 35.1851C47.9903 35.8453 49.3264 36.1755 50.7953 36.1755C53.0251 36.1755 54.8567 35.4457 56.2902 33.9862L57.5378 35.2111C56.7237 36.0799 55.7239 36.7489 54.5382 37.218C53.3702 37.6698 52.096 37.8956 50.7156 37.8956Z" fill="#213E26"/>
<path opacity="0.8" d="M66.0044 23.9259C67.8272 23.9259 69.2254 24.3777 70.1987 25.2812C71.172 26.1674 71.6586 27.4879 71.6586 29.2428V37.7394H69.8535V35.6022C69.4289 36.3146 68.8005 36.8706 67.9688 37.2702C67.1547 37.6699 66.1814 37.8697 65.0488 37.8697C63.4914 37.8697 62.2527 37.5048 61.3324 36.775C60.4122 36.0453 59.9521 35.0809 59.9521 33.882C59.9521 32.7179 60.3768 31.7796 61.2262 31.0672C62.0934 30.3548 63.4649 29.9986 65.3408 29.9986H69.7739V29.1646C69.7739 27.9831 69.4376 27.0882 68.7651 26.4801C68.0927 25.8546 67.1105 25.5418 65.8186 25.5418C64.9338 25.5418 64.0843 25.6895 63.2702 25.9849C62.4562 26.2629 61.7571 26.6539 61.1731 27.1578L60.3237 25.7764C61.0316 25.1856 61.881 24.7339 62.8721 24.4211C63.8631 24.091 64.9072 23.9259 66.0044 23.9259ZM65.3408 36.4102C66.4026 36.4102 67.314 36.1756 68.075 35.7064C68.8359 35.2199 69.4022 34.5249 69.7739 33.6214V31.38H65.3939C63.0048 31.38 61.8102 32.1966 61.8102 33.8299C61.8102 34.6292 62.1199 35.2634 62.7393 35.7325C63.3587 36.1843 64.2259 36.4102 65.3408 36.4102Z" fill="#213E26"/>
<path opacity="0.8" d="M80.5205 37.8697C79.3879 37.8697 78.2995 37.7133 77.2554 37.4005C76.229 37.0704 75.4238 36.6621 74.8398 36.1756L75.6892 34.716C76.2732 35.1678 77.0077 35.5414 77.8925 35.8368C78.7774 36.1148 79.6976 36.2538 80.6532 36.2538C81.9274 36.2538 82.8653 36.0626 83.467 35.6804C84.0864 35.2807 84.3961 34.7247 84.3961 34.0123C84.3961 33.5085 84.228 33.1175 83.8918 32.8395C83.5555 32.5441 83.1308 32.3269 82.6176 32.1879C82.1044 32.0315 81.423 31.8839 80.5736 31.7449C79.441 31.5364 78.5296 31.3278 77.8394 31.1193C77.1492 30.8935 76.5564 30.5199 76.0609 29.9986C75.5831 29.4774 75.3441 28.7563 75.3441 27.8354C75.3441 26.6886 75.8308 25.7503 76.8041 25.0206C77.7775 24.2908 79.1313 23.9259 80.8656 23.9259C81.7681 23.9259 82.6707 24.0476 83.5732 24.2908C84.4758 24.5167 85.219 24.8208 85.803 25.203L84.9801 26.6886C83.8298 25.9067 82.4583 25.5158 80.8656 25.5158C79.6622 25.5158 78.7508 25.7243 78.1314 26.1413C77.5297 26.5583 77.2289 27.1056 77.2289 27.7833C77.2289 28.3045 77.397 28.7215 77.7332 29.0343C78.0872 29.3471 78.5207 29.5816 79.034 29.738C79.5472 29.877 80.255 30.0247 81.1576 30.1811C82.2725 30.3896 83.1662 30.5981 83.8387 30.8066C84.5112 31.0151 85.0863 31.3713 85.5641 31.8752C86.0419 32.3791 86.2809 33.0741 86.2809 33.9602C86.2809 35.1591 85.7676 36.1148 84.7412 36.8272C83.7325 37.5222 82.3256 37.8697 80.5205 37.8697Z" fill="#213E26"/>
<path opacity="0.8" d="M94.6491 23.9259C96.4719 23.9259 97.8699 24.3777 98.8433 25.2812C99.8166 26.1674 100.303 27.4879 100.303 29.2428V37.7394H98.4982V35.6022C98.0735 36.3146 97.4452 36.8706 96.6135 37.2702C95.7994 37.6699 94.8261 37.8697 93.6935 37.8697C92.1361 37.8697 90.8974 37.5048 89.9771 36.775C89.0569 36.0453 88.5967 35.0809 88.5967 33.882C88.5967 32.7179 89.0215 31.7796 89.8709 31.0672C90.7381 30.3548 92.1096 29.9986 93.9855 29.9986H98.4185V29.1646C98.4185 27.9831 98.0823 27.0882 97.4098 26.4801C96.7373 25.8546 95.7552 25.5418 94.4633 25.5418C93.5784 25.5418 92.729 25.6895 91.9149 25.9849C91.1009 26.2629 90.4018 26.6539 89.8178 27.1578L88.9684 25.7764C89.6763 25.1856 90.5257 24.7339 91.5167 24.4211C92.5078 24.091 93.5519 23.9259 94.6491 23.9259ZM93.9855 36.4102C95.0473 36.4102 95.9587 36.1756 96.7196 35.7064C97.4806 35.2199 98.0469 34.5249 98.4185 33.6214V31.38H94.0386C91.6495 31.38 90.4549 32.1966 90.4549 33.8299C90.4549 34.6292 90.7646 35.2634 91.384 35.7325C92.0034 36.1843 92.8706 36.4102 93.9855 36.4102Z" fill="#213E26"/>
<path opacity="0.8" d="M113.652 37.7394L119.226 24.2908C119.571 23.4568 119.81 22.727 119.81 22.1276C119.81 20.8765 118.987 19.2606 116.784 19.2606C115.191 19.2606 113.837 20.1728 113.837 21.8148C113.837 23.2222 115.005 24.369 116.492 24.369C118.058 24.369 118.775 23.3004 118.775 22.1797C118.775 21.1372 118.191 20.5898 117.421 20.3292C117.262 20.2771 117.209 20.1989 117.209 20.0686C117.209 19.9383 117.315 19.834 117.448 19.834C117.527 19.834 117.633 19.8601 117.74 19.8861C118.509 20.0946 119.306 20.8765 119.306 22.1536C119.306 22.9877 118.775 24.1605 118.324 25.203L115.085 32.8134H114.687L109.856 19.9122H112.006V19.4952H102.582V19.9122H104.122L110.148 35.8368C110.599 37.0357 111.263 37.7394 112.563 37.7394H113.652Z" fill="#213E26"/>
<path opacity="0.8" d="M128.799 37.3745C126.516 37.3745 125.985 35.4458 125.985 32.5528H127.737C130.817 32.5528 133.577 31.7188 133.577 28.9822C133.577 26.011 130.551 25.0206 127.498 25.0206C123.278 25.0206 120.597 27.4444 120.597 31.5103C120.597 35.8107 123.357 38 128.003 38C131.162 38 133.126 36.2538 133.63 33.465L133.153 33.3868L133.1 33.6214C132.622 35.915 130.896 37.3745 128.799 37.3745ZM125.959 30.2071C125.959 26.1674 126.516 25.4897 127.498 25.4897C128.215 25.4897 128.746 26.1934 128.746 28.9561C128.746 30.8587 128.295 32.0837 126.622 32.0837H125.959V30.2071Z" fill="#213E26"/>
<path opacity="0.8" d="M141.199 27.1317V25.0206C139.421 25.3855 137.722 25.5158 135.89 25.5158H134.298V25.9328H136.182V37.0878H134.536V37.5048H143.084V37.0878H141.093V31.9012C141.093 27.7833 142.128 25.4897 144.358 25.4897C145.34 25.4897 145.924 26.011 146.163 26.3237C146.27 26.4801 146.323 26.5844 146.323 26.7147C146.323 26.8711 146.216 26.9492 146.084 26.9492C145.898 26.9492 145.818 26.7407 145.659 26.5583C145.5 26.3759 145.102 26.037 144.491 26.037C143.456 26.037 142.739 26.845 142.739 27.8875C142.739 29.0604 143.668 29.8422 144.81 29.8422C146.243 29.8422 147.066 28.7476 147.066 27.4966C147.066 26.1413 145.924 25.0206 144.332 25.0206C142.898 25.0206 141.863 25.9328 141.332 27.1317H141.199Z" fill="#213E26"/>
<path opacity="0.8" d="M161.415 19C159.637 19.3649 157.938 19.4952 156.106 19.4952H154.514V19.9122H156.398V26.8711H156.266C155.655 25.6461 154.567 25.0206 152.921 25.0206C149.098 25.0206 147.744 27.7572 147.744 31.5103C147.744 35.0027 149.258 38 152.549 38C154.407 38 155.575 37.4005 156.266 35.7064H156.398V37.5048H163.061V37.0878H161.415V19ZM156.504 31.5103C156.504 33.882 155.867 36.8272 154.487 36.8272C153.292 36.8272 153.107 34.4554 153.107 31.5103C153.107 27.8093 153.452 25.9849 154.487 25.9849C155.469 25.9849 156.504 27.5487 156.504 30.8066V31.5103Z" fill="#213E26"/>
<path opacity="0.8" d="M172.169 37.3745C169.886 37.3745 169.355 35.4458 169.355 32.5528H171.107C174.186 32.5528 176.947 31.7188 176.947 28.9822C176.947 26.011 173.921 25.0206 170.868 25.0206C166.647 25.0206 163.966 27.4444 163.966 31.5103C163.966 35.8107 166.727 38 171.372 38C174.531 38 176.496 36.2538 177 33.465L176.522 33.3868L176.469 33.6214C175.991 35.915 174.266 37.3745 172.169 37.3745ZM169.328 30.2071C169.328 26.1674 169.886 25.4897 170.868 25.4897C171.585 25.4897 172.116 26.1934 172.116 28.9561C172.116 30.8587 171.664 32.0837 169.992 32.0837H169.328V30.2071Z" fill="#213E26"/>
</g>
</svg>
