<svg width="16" height="16" viewBox="0 0 16 16" fill="none" xmlns="http://www.w3.org/2000/svg">
<path fill-rule="evenodd" clip-rule="evenodd" d="M0 7.51273C0 6.99409 0.447715 6.57364 1 6.57364H15C15.5523 6.57364 16 6.99409 16 7.51273C16 8.03138 15.5523 8.45183 15 8.45183H1C0.447715 8.45183 0 8.03138 0 7.51273Z" fill="#464646"/>
<path fill-rule="evenodd" clip-rule="evenodd" d="M8.70711 0.275053C9.09763 0.641791 9.09763 1.23639 8.70711 1.60313L2.41421 7.51273L8.70711 13.4223C9.09763 13.7891 9.09763 14.3837 8.70711 14.7504C8.31658 15.1171 7.68342 15.1171 7.29289 14.7504L0.292893 8.17676C-0.0976311 7.81003 -0.0976311 7.21543 0.292893 6.84869L7.29289 0.275053C7.68342 -0.0916845 8.31658 -0.0916845 8.70711 0.275053Z" fill="#464646"/>
</svg>
