<svg width="360" height="489" viewBox="0 0 360 489" fill="none" xmlns="http://www.w3.org/2000/svg">
<g opacity="0.2">
<path d="M-41.0545 489C64.9748 489 150.929 403.06 150.929 297.048C150.929 191.035 64.9748 105.095 -41.0545 105.095C-147.084 105.095 -233.038 191.035 -233.038 297.048C-233.038 403.06 -147.084 489 -41.0545 489Z" fill="#BCD6DC"/>
<path d="M353.808 -111.744C353.847 -113.698 353.828 -115.653 353.77 -117.588C353.75 -118.072 353.75 -118.556 353.731 -119.04C353.673 -120.975 353.576 -122.929 353.441 -124.845L351.195 -155.228C351.331 -153.293 351.428 -151.357 351.486 -149.403C351.505 -148.919 351.524 -148.455 351.524 -147.971C351.563 -146.016 351.602 -144.081 351.563 -142.107C351.563 -142.068 351.563 -142.01 351.563 -141.972C351.524 -140.056 351.447 -138.14 351.331 -136.205C351.311 -135.721 351.273 -135.218 351.234 -134.734C351.099 -132.76 350.944 -130.786 350.731 -128.812C350.731 -128.774 350.711 -128.716 350.711 -128.677C350.499 -126.742 350.247 -124.806 349.957 -122.871C349.879 -122.368 349.802 -121.865 349.724 -121.362C349.415 -119.369 349.066 -117.395 348.679 -115.401C348.679 -115.382 348.66 -115.363 348.66 -115.343C348.273 -113.369 347.808 -111.396 347.344 -109.422C347.228 -108.918 347.092 -108.415 346.976 -107.912C346.473 -105.919 345.95 -103.926 345.35 -101.913C344.827 -100.133 344.247 -98.3716 343.666 -96.6106C343.492 -96.1074 343.337 -95.6043 343.182 -95.1011C342.486 -93.0885 341.75 -91.0953 340.995 -89.1214C340.802 -88.6569 340.608 -88.1925 340.415 -87.7087C339.815 -86.1992 339.195 -84.7091 338.556 -83.219C338.247 -82.5224 337.937 -81.845 337.627 -81.1677C337.066 -79.9098 336.485 -78.652 335.866 -77.4134C335.518 -76.6974 335.169 -75.9814 334.802 -75.2654C334.182 -74.0462 333.563 -72.8464 332.924 -71.6465C332.556 -70.9692 332.189 -70.2725 331.821 -69.5952C331.105 -68.2986 330.35 -67.0021 329.595 -65.7055C329.285 -65.1636 328.976 -64.6217 328.647 -64.0993C327.563 -62.2995 326.44 -60.5191 325.298 -58.7581C325.124 -58.4872 324.95 -58.2356 324.776 -57.984C323.789 -56.4939 322.763 -55.0038 321.737 -53.5331C321.33 -52.9525 320.885 -52.372 320.479 -51.7914C319.647 -50.6496 318.814 -49.5272 317.963 -48.4048C317.479 -47.7662 316.995 -47.1469 316.492 -46.5276C315.659 -45.4633 314.808 -44.4183 313.937 -43.3733C313.434 -42.754 312.93 -42.1541 312.427 -41.5542C311.498 -40.4511 310.55 -39.3868 309.601 -38.3031C309.137 -37.7805 308.692 -37.258 308.227 -36.7549C306.872 -35.2648 305.498 -33.8134 304.104 -32.3813C304.027 -32.3039 303.95 -32.2265 303.872 -32.1298C302.382 -30.6203 300.872 -29.1302 299.343 -27.6595C298.859 -27.195 298.356 -26.7305 297.853 -26.2855C296.885 -25.3759 295.917 -24.4857 294.93 -23.6149C292.685 -21.6023 290.382 -19.6284 288.02 -17.7125C287.575 -17.3448 287.111 -16.9965 286.666 -16.6288C284.614 -14.9839 282.523 -13.397 280.394 -11.8489C279.833 -11.4425 279.291 -11.0167 278.73 -10.6297C276.252 -8.84932 273.736 -7.127 271.181 -5.46272C270.678 -5.13374 270.175 -4.82411 269.652 -4.49512C267.427 -3.08243 265.162 -1.70842 262.878 -0.373138C262.239 -0.00544739 261.601 0.381592 260.943 0.749283C259.53 1.56206 258.078 2.33615 256.646 3.11023C255.891 3.51662 255.136 3.94235 254.362 4.34875C252.465 5.33571 250.549 6.28394 248.613 7.21284C248.284 7.36766 247.955 7.54182 247.626 7.69664C245.362 8.78035 243.059 9.80602 240.755 10.793C240.058 11.0833 239.362 11.3735 238.665 11.6638C237.039 12.3411 235.394 13.0184 233.749 13.6571C232.704 14.0634 231.658 14.4311 230.613 14.8182C229.433 15.2632 228.252 15.689 227.052 16.1148C225.987 16.4825 224.903 16.8501 223.82 17.1985C222.62 17.6049 221.42 17.9919 220.22 18.379C219.136 18.7273 218.032 19.0369 216.929 19.3659C215.71 19.7142 214.51 20.0819 213.29 20.4109C212.187 20.7205 211.065 20.9915 209.942 21.2817C208.723 21.5914 207.503 21.901 206.265 22.1913C205.006 22.5009 203.729 22.7718 202.452 23.0428C201.503 23.2556 200.574 23.4492 199.626 23.6427C198.252 23.9136 196.877 24.1652 195.503 24.4168C194.613 24.5716 193.722 24.7457 192.813 24.9006C191.284 25.1521 189.755 25.3844 188.206 25.6166C187.451 25.7327 186.697 25.8488 185.942 25.9456C183.638 26.2552 181.335 26.5261 179.032 26.7584C177.329 26.9325 175.625 27.0486 173.903 27.1841C172.316 27.3002 170.729 27.4163 169.141 27.4937C168.019 27.5518 166.877 27.6098 165.735 27.6485C164.128 27.7066 162.503 27.7453 160.896 27.7646C159.774 27.784 158.67 27.8034 157.548 27.8034C155.864 27.8034 154.18 27.7646 152.477 27.7066C151.432 27.6872 150.386 27.6679 149.341 27.6292C147.425 27.5518 145.509 27.4163 143.593 27.2808C142.741 27.2228 141.909 27.1841 141.057 27.1067C140.573 27.068 140.07 27.0099 139.586 26.9712C137.728 26.7971 135.87 26.6229 134.012 26.3907C133.257 26.2939 132.502 26.1971 131.728 26.1004C130.044 25.8875 128.38 25.6553 126.696 25.3844C125.98 25.2682 125.283 25.1715 124.567 25.0554C122.225 24.6683 119.902 24.262 117.56 23.7975L119.805 54.1801C122.147 54.6446 124.47 55.0703 126.812 55.438C127.528 55.5541 128.225 55.6509 128.941 55.767C130.625 56.0186 132.309 56.2701 133.973 56.483C134.728 56.5798 135.483 56.6765 136.238 56.7733C138.096 56.9862 139.954 57.1797 141.812 57.3539C142.296 57.3926 142.799 57.4506 143.283 57.4893C143.419 57.5087 143.554 57.5087 143.69 57.528C144.406 57.5861 145.102 57.6054 145.819 57.6635C147.735 57.799 149.651 57.9344 151.567 58.0118C152.612 58.0505 153.657 58.0699 154.683 58.0892C156.367 58.1279 158.07 58.1666 159.754 58.186C160.857 58.186 161.98 58.1666 163.083 58.1473C164.709 58.1279 166.316 58.0892 167.922 58.0312C169.045 57.9924 170.187 57.9344 171.309 57.8763C172.896 57.7989 174.503 57.6828 176.09 57.5667C176.729 57.5087 177.348 57.4893 177.987 57.4506C179.071 57.3539 180.135 57.2571 181.2 57.141C183.522 56.9088 185.826 56.6378 188.109 56.3282C188.864 56.2314 189.619 56.096 190.374 55.9798C191.903 55.7476 193.432 55.5348 194.961 55.2832C195.871 55.1284 196.761 54.9542 197.671 54.7994C199.045 54.5478 200.419 54.2962 201.774 54.0253C202.723 53.8318 203.671 53.6189 204.619 53.406C205.51 53.2125 206.419 53.0384 207.31 52.8255C207.677 52.7481 208.065 52.6319 208.432 52.5545C209.671 52.2643 210.89 51.9547 212.11 51.645C213.232 51.3547 214.355 51.0838 215.458 50.7742C216.678 50.4452 217.878 50.0775 219.097 49.7292C220.2 49.4002 221.303 49.0906 222.407 48.7422C223.607 48.3745 224.807 47.9681 226.007 47.5811C227.091 47.2328 228.174 46.8651 229.239 46.4974C230.439 46.0716 231.62 45.6459 232.82 45.2008C233.633 44.9105 234.446 44.6202 235.239 44.3106C235.471 44.2138 235.704 44.1171 235.936 44.0203C237.581 43.3817 239.207 42.7044 240.833 42.0271C241.529 41.7368 242.246 41.4659 242.942 41.1562C245.246 40.1693 247.549 39.1243 249.813 38.0599C250.162 37.8857 250.51 37.7116 250.859 37.5374C252.775 36.6085 254.672 35.6796 256.549 34.6927C257.323 34.2863 258.078 33.8605 258.852 33.4541C260.285 32.6801 261.717 31.906 263.149 31.1126C263.42 30.9577 263.691 30.8223 263.962 30.6674C264.349 30.4546 264.717 30.203 265.085 29.9901C267.368 28.6548 269.633 27.2809 271.878 25.8681C272.381 25.5392 272.885 25.2295 273.388 24.9199C275.943 23.2556 278.478 21.5333 280.936 19.7529C281.498 19.3465 282.059 18.9401 282.62 18.5144C284.749 16.9662 286.84 15.36 288.891 13.7345C289.337 13.3668 289.801 13.0184 290.246 12.6701C292.607 10.7543 294.891 8.79971 297.156 6.76775C297.35 6.59358 297.562 6.43875 297.756 6.26457C298.549 5.54855 299.324 4.8132 300.098 4.07782C300.582 3.61337 301.085 3.16827 301.569 2.70383C303.098 1.23306 304.627 -0.257034 306.117 -1.76648C306.195 -1.84389 306.253 -1.9213 306.33 -1.9987C307.743 -3.4501 309.117 -4.9015 310.472 -6.39162C310.937 -6.89476 311.401 -7.41727 311.846 -7.93977C312.795 -9.00414 313.743 -10.0878 314.672 -11.1716C315.176 -11.7715 315.679 -12.3907 316.201 -12.9906C317.072 -14.0357 317.905 -15.0807 318.756 -16.145C319.24 -16.7643 319.743 -17.4029 320.227 -18.0221C321.079 -19.1446 321.911 -20.267 322.743 -21.4088C323.169 -21.9893 323.595 -22.5505 324.001 -23.1504C325.047 -24.6212 326.053 -26.1113 327.06 -27.6014C327.234 -27.853 327.408 -28.1046 327.582 -28.3561C328.743 -30.1172 329.847 -31.8975 330.931 -33.6973C331.26 -34.2391 331.55 -34.781 331.879 -35.3035C332.634 -36.5807 333.389 -37.8773 334.105 -39.1932C334.473 -39.8706 334.84 -40.5479 335.208 -41.2445C335.847 -42.4444 336.466 -43.6442 337.085 -44.8634C337.453 -45.5794 337.802 -46.2954 338.15 -47.0308C338.75 -48.2693 339.331 -49.5272 339.892 -50.7851C340.202 -51.4624 340.511 -52.1591 340.821 -52.8364C341.46 -54.3265 342.079 -55.8166 342.679 -57.326C342.873 -57.7905 343.066 -58.255 343.26 -58.7388C344.034 -60.7127 344.769 -62.7059 345.447 -64.7185C345.621 -65.2217 345.776 -65.7248 345.931 -66.2086C346.337 -67.4472 346.763 -68.6857 347.15 -69.9242C347.305 -70.4661 347.479 -70.9886 347.634 -71.5304C348.215 -73.5237 348.757 -75.5169 349.26 -77.5295C349.395 -78.0327 349.511 -78.5358 349.628 -79.039C350.111 -81.0129 350.557 -82.9868 350.944 -84.9607C350.944 -84.98 350.963 -84.9994 350.963 -85.0188C351.35 -87.012 351.699 -89.0053 352.008 -90.9792C352.086 -91.4823 352.163 -91.9855 352.24 -92.4886C352.531 -94.4238 352.782 -96.359 352.995 -98.2749C352.995 -98.3329 353.015 -98.391 353.015 -98.4297C353.228 -100.404 353.382 -102.377 353.518 -104.351C353.557 -104.855 353.576 -105.338 353.615 -105.841C353.634 -106.345 353.692 -106.867 353.711 -107.37C353.77 -108.783 353.808 -110.176 353.847 -111.57C353.789 -111.628 353.808 -111.686 353.808 -111.744Z" fill="url(#paint0_linear_811_3541)"/>
<path d="M212.826 -300L204.426 -271.456C286.259 -255.026 335.227 -181.837 313.588 -108.299C296.42 -49.9916 239.981 -8.71384 176.554 -2.289C159.987 -0.605377 142.915 -1.32138 125.98 -4.70798L117.56 23.8362C138.154 27.9775 158.864 28.829 178.993 26.7777C256.007 18.9789 324.543 -31.1428 345.35 -101.932C371.634 -191.203 312.176 -280.048 212.826 -300Z" fill="#A7D1DB"/>
<path d="M576.972 -172.412C576.856 -172.277 576.663 -172.219 576.431 -172.18C576.372 -172.161 576.295 -172.161 576.218 -172.161C575.985 -172.141 575.714 -172.161 575.385 -172.238C575.172 -172.296 574.94 -172.374 574.708 -172.451C574.572 -172.49 574.456 -172.528 574.321 -172.586C574.069 -172.683 573.818 -172.799 573.547 -172.935C573.469 -172.973 573.411 -172.993 573.334 -173.032C572.985 -173.206 572.617 -173.399 572.23 -173.612C572.134 -173.67 572.037 -173.728 571.94 -173.786C571.63 -173.96 571.321 -174.154 570.992 -174.347C570.876 -174.425 570.759 -174.483 570.643 -174.56C570.217 -174.831 569.792 -175.102 569.327 -175.412C569.288 -175.431 569.269 -175.451 569.23 -175.489C568.805 -175.78 568.379 -176.089 567.934 -176.399C567.779 -176.515 567.643 -176.612 567.489 -176.728C567.14 -176.979 566.772 -177.25 566.424 -177.521C566.25 -177.657 566.095 -177.773 565.921 -177.908C565.553 -178.199 565.166 -178.489 564.779 -178.798C564.605 -178.934 564.43 -179.069 564.276 -179.205C563.908 -179.495 563.521 -179.805 563.153 -180.114C562.94 -180.289 562.727 -180.463 562.514 -180.637C562.282 -180.83 562.03 -181.043 561.798 -181.256C561.411 -181.585 561.024 -181.914 560.637 -182.243C560.482 -182.379 560.327 -182.514 560.172 -182.649C559.572 -183.172 558.972 -183.694 558.372 -184.236C558.121 -184.449 557.888 -184.681 557.637 -184.894C557.114 -185.359 556.611 -185.843 556.088 -186.326C555.856 -186.539 555.624 -186.771 555.372 -186.984C554.695 -187.623 554.017 -188.281 553.34 -188.939C553.282 -188.997 553.224 -189.055 553.166 -189.113C552.469 -189.81 551.753 -190.506 551.075 -191.222C550.514 -191.803 549.953 -192.384 549.391 -192.964C549.12 -193.254 548.869 -193.525 548.598 -193.816C548.346 -194.087 548.075 -194.377 547.824 -194.648C547.495 -194.996 547.185 -195.344 546.875 -195.693C546.74 -195.848 546.604 -196.002 546.469 -196.138C546.043 -196.622 545.617 -197.105 545.23 -197.57C545.153 -197.667 545.075 -197.744 544.998 -197.841C544.688 -198.208 544.378 -198.557 544.088 -198.925C543.972 -199.079 543.837 -199.215 543.72 -199.37C543.488 -199.641 543.275 -199.931 543.043 -200.202C542.908 -200.357 542.791 -200.531 542.656 -200.686C542.462 -200.937 542.269 -201.189 542.075 -201.421C541.959 -201.576 541.843 -201.731 541.727 -201.885C541.553 -202.118 541.378 -202.35 541.224 -202.582C541.108 -202.737 541.011 -202.892 540.895 -203.046C540.74 -203.259 540.604 -203.472 540.469 -203.685C540.372 -203.84 540.256 -203.995 540.159 -204.15C540.043 -204.324 539.927 -204.498 539.83 -204.672C539.714 -204.846 539.598 -205.04 539.501 -205.214C539.424 -205.349 539.346 -205.485 539.269 -205.62C539.153 -205.833 539.017 -206.046 538.92 -206.259C538.862 -206.375 538.804 -206.472 538.766 -206.588C538.611 -206.917 538.475 -207.227 538.359 -207.497C538.34 -207.536 538.32 -207.594 538.301 -207.652C538.243 -207.788 538.224 -207.923 538.185 -208.039C538.166 -208.136 538.127 -208.233 538.107 -208.33C538.088 -208.465 538.069 -208.562 538.069 -208.678C538.069 -208.755 538.049 -208.833 538.049 -208.891C538.049 -209.007 538.069 -209.104 538.088 -209.2C538.088 -209.239 538.088 -209.297 538.107 -209.336C538.146 -209.471 538.204 -209.587 538.301 -209.665L-39.5837 390.614C-39.6611 390.711 -39.7386 390.808 -39.7773 390.943C-39.7966 390.982 -39.7966 391.04 -39.7966 391.098C-39.816 391.195 -39.8353 391.292 -39.8353 391.408C-39.8353 391.466 -39.816 391.563 -39.816 391.64C-39.7966 391.756 -39.7966 391.853 -39.7773 391.988C-39.7579 392.085 -39.7192 392.182 -39.6998 392.279C-39.6611 392.414 -39.6224 392.53 -39.5837 392.685C-39.5837 392.704 -39.5837 392.704 -39.5644 392.724C-39.545 392.763 -39.5256 392.801 -39.5063 392.84C-39.3902 393.13 -39.2547 393.44 -39.0998 393.749C-39.0805 393.808 -39.0611 393.846 -39.0418 393.904C-39.0224 393.962 -38.9643 394.02 -38.945 394.078C-38.8288 394.291 -38.7127 394.504 -38.5966 394.717C-38.5385 394.814 -38.4998 394.891 -38.4418 394.988C-38.4224 395.027 -38.3837 395.085 -38.3643 395.124C-38.2675 395.298 -38.1514 395.491 -38.0353 395.665C-37.9579 395.781 -37.8805 395.917 -37.803 396.033C-37.7643 396.072 -37.745 396.13 -37.7063 396.168C-37.6095 396.323 -37.4934 396.478 -37.3772 396.652C-37.2804 396.788 -37.1837 396.943 -37.0869 397.078C-37.0482 397.136 -36.9901 397.214 -36.9514 397.272C-36.8546 397.426 -36.7385 397.581 -36.6224 397.736C-36.5256 397.871 -36.4288 398.007 -36.3321 398.142C-36.2546 398.239 -36.1772 398.336 -36.1192 398.433C-36.003 398.588 -35.8869 398.742 -35.7707 398.897C-35.6933 399.013 -35.6159 399.11 -35.5192 399.226C-35.403 399.362 -35.2869 399.516 -35.1707 399.652C-35.0546 399.807 -34.9385 399.961 -34.803 400.116C-34.7449 400.194 -34.6869 400.271 -34.6288 400.349C-34.474 400.542 -34.2998 400.755 -34.1256 400.968C-34.0095 401.123 -33.8933 401.258 -33.7772 401.394C-33.7385 401.432 -33.7191 401.471 -33.6804 401.51C-33.4288 401.819 -33.1578 402.148 -32.8869 402.458C-32.8094 402.555 -32.732 402.632 -32.6546 402.729C-32.6352 402.748 -32.6352 402.748 -32.6352 402.768C-32.2481 403.213 -31.861 403.658 -31.4546 404.122C-31.4352 404.142 -31.4352 404.141 -31.4159 404.161C-31.2804 404.316 -31.1255 404.49 -30.9707 404.664C-30.6997 404.974 -30.4287 405.283 -30.1384 405.593C-30.1191 405.612 -30.0997 405.632 -30.0803 405.67C-29.8287 405.941 -29.5771 406.212 -29.3062 406.502C-29.0933 406.735 -28.8803 406.967 -28.6674 407.199C-28.6287 407.257 -28.5707 407.296 -28.532 407.354C-28.0287 407.896 -27.5061 408.418 -26.9836 408.96C-26.9448 409.018 -26.8868 409.057 -26.8481 409.096C-26.1513 409.812 -25.4545 410.508 -24.7577 411.205L-24.7384 411.224C-24.6803 411.282 -24.6416 411.321 -24.5835 411.379C-23.9061 412.037 -23.2287 412.695 -22.5512 413.353C-22.319 413.566 -22.0867 413.798 -21.8544 414.011C-21.3319 414.495 -20.8093 414.979 -20.3061 415.443C-20.1706 415.559 -20.0351 415.695 -19.8996 415.83C-19.7835 415.927 -19.6867 416.024 -19.5706 416.12C-18.9705 416.662 -18.3705 417.185 -17.7899 417.707C-17.6738 417.804 -17.5383 417.92 -17.4221 418.036C-17.3834 418.075 -17.3447 418.094 -17.306 418.133C-16.9189 418.462 -16.5512 418.772 -16.1641 419.101C-15.9318 419.294 -15.6995 419.488 -15.4866 419.681C-15.4673 419.701 -15.4479 419.72 -15.4092 419.739C-15.1963 419.913 -15.0027 420.068 -14.8092 420.223C-14.4608 420.513 -14.1124 420.784 -13.7834 421.055C-13.7447 421.094 -13.706 421.113 -13.6672 421.152C-13.4931 421.287 -13.3188 421.423 -13.1447 421.558C-12.8543 421.79 -12.564 422.023 -12.2737 422.255C-12.1963 422.313 -12.0995 422.371 -12.0221 422.448C-11.8479 422.584 -11.6737 422.7 -11.4995 422.836C-11.3059 422.99 -11.1124 423.145 -10.9188 423.281C-10.764 423.397 -10.6091 423.513 -10.4543 423.629C-10.2995 423.745 -10.1446 423.861 -9.98979 423.958C-9.89302 424.035 -9.79622 424.093 -9.69945 424.171C-9.35106 424.422 -9.02204 424.635 -8.69301 424.867C-8.6543 424.887 -8.63494 424.906 -8.59623 424.945L-8.57685 424.964C-8.2091 425.216 -7.86073 425.448 -7.53169 425.661C-7.45427 425.719 -7.37686 425.758 -7.29944 425.796C-7.18331 425.874 -7.06716 425.932 -6.95103 426.009C-6.81554 426.106 -6.6607 426.183 -6.52522 426.28C-6.35102 426.396 -6.17685 426.474 -6.00265 426.59C-5.90588 426.648 -5.80908 426.706 -5.71231 426.764C-5.6736 426.783 -5.61555 426.822 -5.57684 426.841C-5.26715 427.016 -4.95747 427.17 -4.66714 427.325C-4.64779 427.325 -4.62843 427.345 -4.62843 427.345C-4.55101 427.383 -4.49294 427.403 -4.41552 427.441C-4.20261 427.538 -3.9897 427.654 -3.7768 427.732C-3.71873 427.751 -3.68004 427.77 -3.64133 427.79C-3.50584 427.848 -3.37033 427.886 -3.2542 427.925C-3.13807 427.964 -3.00261 428.022 -2.88648 428.061C-2.77035 428.099 -2.67357 428.119 -2.57679 428.138C-2.36389 428.196 -2.15099 428.215 -1.97679 428.235C-1.88002 428.235 -1.82193 428.215 -1.74451 428.215C-1.66709 428.215 -1.60902 428.215 -1.5316 428.196C-1.3187 428.157 -1.12515 428.08 -0.989662 427.964L576.972 -172.412Z" fill="url(#paint1_linear_811_3541)"/>
<path opacity="0.56" d="M134.786 348.814C69.9078 423.803 -3.91254 466.242 -30.1 443.6C-56.2874 420.958 -24.9322 341.809 39.9461 266.8C104.824 191.812 178.645 149.373 204.832 172.014C231.019 194.676 199.664 273.825 134.786 348.814Z" fill="url(#paint2_radial_811_3541)"/>
<path opacity="0.56" d="M385.706 75.448C373.86 116.861 337.26 142.715 303.969 133.175C270.678 123.654 253.297 82.3566 265.143 40.9627C276.988 -0.450527 313.589 -26.3048 346.879 -16.7643C380.17 -7.26243 397.551 34.0347 385.706 75.448Z" fill="url(#paint3_radial_811_3541)"/>
<path opacity="0.56" d="M278.904 97.9737C230.884 113.204 183.464 98.8058 172.993 65.8107C162.522 32.8155 192.967 -6.29484 240.987 -21.5249C289.007 -36.7549 336.427 -22.357 346.898 10.6382C357.37 43.6527 326.924 82.7437 278.904 97.9737Z" fill="url(#paint4_radial_811_3541)"/>
<path opacity="0.56" d="M206.187 134.007C167.419 146.296 127.509 129.518 117.037 96.5224C106.566 63.5272 129.502 26.8165 168.251 14.5086C207.019 2.22011 246.929 18.9983 257.4 51.9934C267.891 84.9886 244.955 121.699 206.187 134.007Z" fill="url(#paint5_radial_811_3541)"/>
<path d="M334.492 24.0491L370.957 90.4264L264.736 375.152L228.252 308.775L334.492 24.0491Z" fill="#B3DDE7"/>
<path d="M228.252 308.775L264.736 375.152L123.851 357.406L87.3855 291.029L228.252 308.775Z" fill="#98CEDA"/>
<path d="M334.492 24.049L228.252 308.775L87.3855 291.029L193.606 6.28394L334.492 24.049Z" fill="#CEF3FB"/>
<g opacity="0.5">
<path opacity="0.35" d="M174.135 249.132C121.838 291.668 62.9016 305.814 42.5014 280.734C22.1011 255.654 47.9595 200.849 100.257 158.333C152.554 115.797 211.491 101.651 231.891 126.731C252.291 151.811 226.433 206.616 174.135 249.132Z" fill="url(#paint6_radial_811_3541)"/>
<path opacity="0.56" d="M174.135 249.132C121.838 291.668 62.9016 305.814 42.5014 280.734C22.1011 255.654 47.9595 200.849 100.257 158.333C152.554 115.797 211.491 101.651 231.891 126.731C252.291 151.811 226.433 206.616 174.135 249.132Z" fill="url(#paint7_radial_811_3541)"/>
</g>
<path d="M54.9465 102.367L117.251 88.3364L173.458 151.211L111.173 165.222L54.9465 102.367Z" fill="#83E8FF"/>
<path d="M111.173 165.222L173.458 151.211L131.651 216.776L69.366 230.786L111.173 165.222Z" fill="#2EC4E6"/>
<path d="M13.1394 167.931L54.9464 102.367L111.173 165.222L69.3659 230.786L13.1394 167.931Z" fill="#5EDCF8"/>
</g>
<defs>
<linearGradient id="paint0_linear_811_3541" x1="-13.4721" y1="152.386" x2="735.061" y2="-347.617" gradientUnits="userSpaceOnUse">
<stop offset="0.0591" stop-color="#A7D1DB"/>
<stop offset="0.3763" stop-color="#87A0A6"/>
<stop offset="0.7226" stop-color="#657A7F"/>
<stop offset="1" stop-color="#4E6064"/>
</linearGradient>
<linearGradient id="paint1_linear_811_3541" x1="248.486" y1="92.912" x2="288.005" y2="130.41" gradientUnits="userSpaceOnUse">
<stop stop-color="#67DAF4"/>
<stop offset="0.0166" stop-color="#6CDCF5"/>
<stop offset="0.1031" stop-color="#83E3F9"/>
<stop offset="0.1853" stop-color="#90E8FC"/>
<stop offset="0.2581" stop-color="#95EAFD"/>
<stop offset="0.2856" stop-color="#92EAFE"/>
<stop offset="0.3978" stop-color="#89E9FF"/>
<stop offset="0.4419" stop-color="#82E6FD"/>
<stop offset="0.6803" stop-color="#5ED9F4"/>
<stop offset="0.8748" stop-color="#48D0EF"/>
<stop offset="1" stop-color="#40CDED"/>
</linearGradient>
<radialGradient id="paint2_radial_811_3541" cx="0" cy="0" r="1" gradientUnits="userSpaceOnUse" gradientTransform="translate(87.3755 307.817) rotate(40.8724) scale(56.1128 154.242)">
<stop stop-color="#615750"/>
<stop offset="0.1108" stop-color="#685E57" stop-opacity="0.8987"/>
<stop offset="0.2765" stop-color="#7A726C" stop-opacity="0.747"/>
<stop offset="0.4768" stop-color="#98928D" stop-opacity="0.5638"/>
<stop offset="0.704" stop-color="#C2BEBC" stop-opacity="0.356"/>
<stop offset="0.9509" stop-color="#F7F7F7" stop-opacity="0.1302"/>
<stop offset="0.9839" stop-color="white" stop-opacity="0.1"/>
</radialGradient>
<radialGradient id="paint3_radial_811_3541" cx="0" cy="0" r="1" gradientUnits="userSpaceOnUse" gradientTransform="translate(325.434 58.1946) rotate(15.9702) scale(56.1165 66.9898)">
<stop stop-color="#615750"/>
<stop offset="0.1108" stop-color="#685E57" stop-opacity="0.8987"/>
<stop offset="0.2765" stop-color="#7A726C" stop-opacity="0.747"/>
<stop offset="0.4768" stop-color="#98928D" stop-opacity="0.5638"/>
<stop offset="0.704" stop-color="#C2BEBC" stop-opacity="0.356"/>
<stop offset="0.9509" stop-color="#F7F7F7" stop-opacity="0.1302"/>
<stop offset="0.9839" stop-color="white" stop-opacity="0.1"/>
</radialGradient>
<radialGradient id="paint4_radial_811_3541" cx="0" cy="0" r="1" gradientUnits="userSpaceOnUse" gradientTransform="translate(259.949 38.2248) rotate(72.3934) scale(56.1091 78.3657)">
<stop stop-color="#615750"/>
<stop offset="0.1108" stop-color="#685E57" stop-opacity="0.8987"/>
<stop offset="0.2765" stop-color="#7A726C" stop-opacity="0.747"/>
<stop offset="0.4768" stop-color="#98928D" stop-opacity="0.5638"/>
<stop offset="0.704" stop-color="#C2BEBC" stop-opacity="0.356"/>
<stop offset="0.9509" stop-color="#F7F7F7" stop-opacity="0.1302"/>
<stop offset="0.9839" stop-color="white" stop-opacity="0.1"/>
</radialGradient>
<radialGradient id="paint5_radial_811_3541" cx="0" cy="0" r="1" gradientUnits="userSpaceOnUse" gradientTransform="translate(187.235 74.2668) rotate(72.3934) scale(56.1088 63.2496)">
<stop stop-color="#615750"/>
<stop offset="0.1108" stop-color="#685E57" stop-opacity="0.8987"/>
<stop offset="0.2765" stop-color="#7A726C" stop-opacity="0.747"/>
<stop offset="0.4768" stop-color="#98928D" stop-opacity="0.5638"/>
<stop offset="0.704" stop-color="#C2BEBC" stop-opacity="0.356"/>
<stop offset="0.9509" stop-color="#F7F7F7" stop-opacity="0.1302"/>
<stop offset="0.9839" stop-color="white" stop-opacity="0.1"/>
</radialGradient>
<radialGradient id="paint6_radial_811_3541" cx="0" cy="0" r="1" gradientUnits="userSpaceOnUse" gradientTransform="translate(137.202 203.741) rotate(50.8817) scale(52.392 104.846)">
<stop stop-color="#615750"/>
<stop offset="0.1108" stop-color="#685E57" stop-opacity="0.8987"/>
<stop offset="0.2765" stop-color="#7A726C" stop-opacity="0.747"/>
<stop offset="0.4768" stop-color="#98928D" stop-opacity="0.5638"/>
<stop offset="0.704" stop-color="#C2BEBC" stop-opacity="0.356"/>
<stop offset="0.9509" stop-color="#F7F7F7" stop-opacity="0.1302"/>
<stop offset="0.9839" stop-color="white" stop-opacity="0.1"/>
</radialGradient>
<radialGradient id="paint7_radial_811_3541" cx="0" cy="0" r="1" gradientUnits="userSpaceOnUse" gradientTransform="translate(137.202 203.741) rotate(50.8817) scale(52.392 104.846)">
<stop stop-color="#615750"/>
<stop offset="0.1108" stop-color="#685E57" stop-opacity="0.8987"/>
<stop offset="0.2765" stop-color="#7A726C" stop-opacity="0.747"/>
<stop offset="0.4768" stop-color="#98928D" stop-opacity="0.5638"/>
<stop offset="0.704" stop-color="#C2BEBC" stop-opacity="0.356"/>
<stop offset="0.9509" stop-color="#F7F7F7" stop-opacity="0.1302"/>
<stop offset="0.9839" stop-color="white" stop-opacity="0.1"/>
</radialGradient>
</defs>
</svg>
