<svg width="291" height="134" viewBox="0 0 291 134" fill="none" xmlns="http://www.w3.org/2000/svg">
<path d="M3.16313 5V12H2.44313V5.64H0.793125V5H3.16313ZM9.61641 11.36V12H4.70641V11.49L7.61641 8.64C7.98307 8.28 8.22974 7.97 8.35641 7.71C8.48974 7.44333 8.55641 7.17667 8.55641 6.91C8.55641 6.49667 8.41307 6.17667 8.12641 5.95C7.84641 5.71667 7.44307 5.6 6.91641 5.6C6.09641 5.6 5.45974 5.86 5.00641 6.38L4.49641 5.94C4.76974 5.62 5.11641 5.37333 5.53641 5.2C5.96307 5.02667 6.44307 4.94 6.97641 4.94C7.68974 4.94 8.25307 5.11 8.66641 5.45C9.08641 5.78333 9.29641 6.24333 9.29641 6.83C9.29641 7.19 9.21641 7.53667 9.05641 7.87C8.89641 8.20333 8.59307 8.58667 8.14641 9.02L5.76641 11.36H9.61641Z" fill="#A3A3A3"/>
<path d="M8.15305 40.33C8.59305 40.4767 8.92971 40.6967 9.16305 40.99C9.40305 41.2833 9.52305 41.6367 9.52305 42.05C9.52305 42.4567 9.41305 42.8133 9.19305 43.12C8.97305 43.42 8.65638 43.6533 8.24305 43.82C7.83638 43.98 7.35638 44.06 6.80305 44.06C5.96305 44.06 5.30305 43.88 4.82305 43.52C4.34305 43.16 4.10305 42.67 4.10305 42.05C4.10305 41.63 4.21638 41.2767 4.44305 40.99C4.67638 40.6967 5.01305 40.4767 5.45305 40.33C5.09305 40.19 4.81971 39.99 4.63305 39.73C4.44638 39.4633 4.35305 39.15 4.35305 38.79C4.35305 38.2233 4.57305 37.7733 5.01305 37.44C5.45971 37.1067 6.05638 36.94 6.80305 36.94C7.29638 36.94 7.72638 37.0167 8.09305 37.17C8.46638 37.3167 8.75638 37.53 8.96305 37.81C9.16971 38.09 9.27305 38.4167 9.27305 38.79C9.27305 39.15 9.17638 39.4633 8.98305 39.73C8.78971 39.99 8.51305 40.19 8.15305 40.33ZM5.07305 38.81C5.07305 39.1967 5.22638 39.5033 5.53305 39.73C5.83971 39.9567 6.26305 40.07 6.80305 40.07C7.34305 40.07 7.76638 39.9567 8.07305 39.73C8.38638 39.5033 8.54305 39.2 8.54305 38.82C8.54305 38.4267 8.38305 38.1167 8.06305 37.89C7.74971 37.6633 7.32971 37.55 6.80305 37.55C6.26971 37.55 5.84638 37.6633 5.53305 37.89C5.22638 38.1167 5.07305 38.4233 5.07305 38.81ZM6.80305 43.45C7.42305 43.45 7.90638 43.3233 8.25305 43.07C8.60638 42.8167 8.78305 42.4733 8.78305 42.04C8.78305 41.6067 8.60638 41.2667 8.25305 41.02C7.90638 40.7667 7.42305 40.64 6.80305 40.64C6.18971 40.64 5.70638 40.7667 5.35305 41.02C5.00638 41.2667 4.83305 41.6067 4.83305 42.04C4.83305 42.48 5.00638 42.8267 5.35305 43.08C5.69971 43.3267 6.18305 43.45 6.80305 43.45Z" fill="#A3A3A3"/>
<path d="M9.85867 74.16H8.45867V76H7.73867V74.16H3.78867V73.64L7.49867 69H8.29867L4.71867 73.52H7.75867V71.9H8.45867V73.52H9.85867V74.16Z" fill="#A3A3A3"/>
<path d="M6.68891 108.06C6.14891 108.06 5.66557 107.917 5.23891 107.63C4.81891 107.343 4.48891 106.933 4.24891 106.4C4.01557 105.86 3.89891 105.227 3.89891 104.5C3.89891 103.773 4.01557 103.143 4.24891 102.61C4.48891 102.07 4.81891 101.657 5.23891 101.37C5.66557 101.083 6.14891 100.94 6.68891 100.94C7.22891 100.94 7.70891 101.083 8.12891 101.37C8.55557 101.657 8.88891 102.07 9.12891 102.61C9.36891 103.143 9.48891 103.773 9.48891 104.5C9.48891 105.227 9.36891 105.86 9.12891 106.4C8.88891 106.933 8.55557 107.343 8.12891 107.63C7.70891 107.917 7.22891 108.06 6.68891 108.06ZM6.68891 107.4C7.09557 107.4 7.45224 107.287 7.75891 107.06C8.07224 106.833 8.31557 106.503 8.48891 106.07C8.66224 105.637 8.74891 105.113 8.74891 104.5C8.74891 103.887 8.66224 103.363 8.48891 102.93C8.31557 102.497 8.07224 102.167 7.75891 101.94C7.45224 101.713 7.09557 101.6 6.68891 101.6C6.28224 101.6 5.92224 101.713 5.60891 101.94C5.30224 102.167 5.06224 102.497 4.88891 102.93C4.71557 103.363 4.62891 103.887 4.62891 104.5C4.62891 105.113 4.71557 105.637 4.88891 106.07C5.06224 106.503 5.30224 106.833 5.60891 107.06C5.92224 107.287 6.28224 107.4 6.68891 107.4Z" fill="#A3A3A3"/>
<path d="M21.14 123H23.99C24.73 123 25.3833 123.15 25.95 123.45C26.5167 123.743 26.9567 124.157 27.27 124.69C27.5833 125.217 27.74 125.82 27.74 126.5C27.74 127.18 27.5833 127.787 27.27 128.32C26.9567 128.847 26.5167 129.26 25.95 129.56C25.3833 129.853 24.73 130 23.99 130H21.14V123ZM23.95 129.36C24.5633 129.36 25.1 129.24 25.56 129C26.02 128.753 26.3767 128.417 26.63 127.99C26.8833 127.557 27.01 127.06 27.01 126.5C27.01 125.94 26.8833 125.447 26.63 125.02C26.3767 124.587 26.02 124.25 25.56 124.01C25.1 123.763 24.5633 123.64 23.95 123.64H21.88V129.36H23.95ZM31.4017 130.05C30.8951 130.05 30.4384 129.937 30.0317 129.71C29.6251 129.477 29.3051 129.157 29.0717 128.75C28.8384 128.343 28.7217 127.883 28.7217 127.37C28.7217 126.857 28.8384 126.397 29.0717 125.99C29.3051 125.583 29.6251 125.267 30.0317 125.04C30.4384 124.813 30.8951 124.7 31.4017 124.7C31.9084 124.7 32.3651 124.813 32.7717 125.04C33.1784 125.267 33.4951 125.583 33.7217 125.99C33.9551 126.397 34.0717 126.857 34.0717 127.37C34.0717 127.883 33.9551 128.343 33.7217 128.75C33.4951 129.157 33.1784 129.477 32.7717 129.71C32.3651 129.937 31.9084 130.05 31.4017 130.05ZM31.4017 129.42C31.7751 129.42 32.1084 129.337 32.4017 129.17C32.7017 128.997 32.9351 128.753 33.1017 128.44C33.2684 128.127 33.3517 127.77 33.3517 127.37C33.3517 126.97 33.2684 126.613 33.1017 126.3C32.9351 125.987 32.7017 125.747 32.4017 125.58C32.1084 125.407 31.7751 125.32 31.4017 125.32C31.0284 125.32 30.6917 125.407 30.3917 125.58C30.0984 125.747 29.8651 125.987 29.6917 126.3C29.5251 126.613 29.4417 126.97 29.4417 127.37C29.4417 127.77 29.5251 128.127 29.6917 128.44C29.8651 128.753 30.0984 128.997 30.3917 129.17C30.6917 129.337 31.0284 129.42 31.4017 129.42ZM42.0813 124.7C42.7413 124.7 43.2579 124.89 43.6313 125.27C44.0113 125.65 44.2013 126.21 44.2013 126.95V130H43.4913V127.02C43.4913 126.473 43.3579 126.057 43.0913 125.77C42.8313 125.483 42.4613 125.34 41.9813 125.34C41.4346 125.34 41.0046 125.51 40.6913 125.85C40.3779 126.183 40.2213 126.647 40.2213 127.24V130H39.5113V127.02C39.5113 126.473 39.3779 126.057 39.1113 125.77C38.8513 125.483 38.4779 125.34 37.9913 125.34C37.4513 125.34 37.0213 125.51 36.7013 125.85C36.3879 126.183 36.2313 126.647 36.2313 127.24V130H35.5213V124.74H36.2013V125.7C36.3879 125.38 36.6479 125.133 36.9813 124.96C37.3146 124.787 37.6979 124.7 38.1313 124.7C38.5713 124.7 38.9513 124.793 39.2713 124.98C39.5979 125.167 39.8413 125.443 40.0013 125.81C40.1946 125.463 40.4713 125.193 40.8313 125C41.1979 124.8 41.6146 124.7 42.0813 124.7Z" fill="#A3A3A3"/>
<path d="M71.07 130.06C70.55 130.06 70.05 129.977 69.57 129.81C69.0967 129.643 68.73 129.423 68.47 129.15L68.76 128.58C69.0133 128.833 69.35 129.04 69.77 129.2C70.19 129.353 70.6233 129.43 71.07 129.43C71.6967 129.43 72.1667 129.317 72.48 129.09C72.7933 128.857 72.95 128.557 72.95 128.19C72.95 127.91 72.8633 127.687 72.69 127.52C72.5233 127.353 72.3167 127.227 72.07 127.14C71.8233 127.047 71.48 126.947 71.04 126.84C70.5133 126.707 70.0933 126.58 69.78 126.46C69.4667 126.333 69.1967 126.143 68.97 125.89C68.75 125.637 68.64 125.293 68.64 124.86C68.64 124.507 68.7333 124.187 68.92 123.9C69.1067 123.607 69.3933 123.373 69.78 123.2C70.1667 123.027 70.6467 122.94 71.22 122.94C71.62 122.94 72.01 122.997 72.39 123.11C72.7767 123.217 73.11 123.367 73.39 123.56L73.14 124.15C72.8467 123.957 72.5333 123.813 72.2 123.72C71.8667 123.62 71.54 123.57 71.22 123.57C70.6067 123.57 70.1433 123.69 69.83 123.93C69.5233 124.163 69.37 124.467 69.37 124.84C69.37 125.12 69.4533 125.347 69.62 125.52C69.7933 125.687 70.0067 125.817 70.26 125.91C70.52 125.997 70.8667 126.093 71.3 126.2C71.8133 126.327 72.2267 126.453 72.54 126.58C72.86 126.7 73.13 126.887 73.35 127.14C73.57 127.387 73.68 127.723 73.68 128.15C73.68 128.503 73.5833 128.827 73.39 129.12C73.2033 129.407 72.9133 129.637 72.52 129.81C72.1267 129.977 71.6433 130.06 71.07 130.06ZM79.7223 127.59H75.3223C75.3623 128.137 75.5723 128.58 75.9523 128.92C76.3323 129.253 76.8123 129.42 77.3923 129.42C77.719 129.42 78.019 129.363 78.2923 129.25C78.5657 129.13 78.8023 128.957 79.0023 128.73L79.4023 129.19C79.169 129.47 78.8757 129.683 78.5223 129.83C78.1757 129.977 77.7923 130.05 77.3723 130.05C76.8323 130.05 76.3523 129.937 75.9323 129.71C75.519 129.477 75.1957 129.157 74.9623 128.75C74.729 128.343 74.6123 127.883 74.6123 127.37C74.6123 126.857 74.7223 126.397 74.9423 125.99C75.169 125.583 75.4757 125.267 75.8623 125.04C76.2557 124.813 76.6957 124.7 77.1823 124.7C77.669 124.7 78.1057 124.813 78.4923 125.04C78.879 125.267 79.1823 125.583 79.4023 125.99C79.6223 126.39 79.7323 126.85 79.7323 127.37L79.7223 127.59ZM77.1823 125.31C76.6757 125.31 76.249 125.473 75.9023 125.8C75.5623 126.12 75.369 126.54 75.3223 127.06H79.0523C79.0057 126.54 78.809 126.12 78.4623 125.8C78.1223 125.473 77.6957 125.31 77.1823 125.31ZM86.0475 124.74V129.36C86.0475 130.253 85.8275 130.913 85.3875 131.34C84.9542 131.773 84.2975 131.99 83.4175 131.99C82.9308 131.99 82.4675 131.917 82.0275 131.77C81.5942 131.63 81.2408 131.433 80.9675 131.18L81.3275 130.64C81.5808 130.867 81.8875 131.043 82.2475 131.17C82.6142 131.297 82.9975 131.36 83.3975 131.36C84.0642 131.36 84.5542 131.203 84.8675 130.89C85.1808 130.583 85.3375 130.103 85.3375 129.45V128.78C85.1175 129.113 84.8275 129.367 84.4675 129.54C84.1142 129.713 83.7208 129.8 83.2875 129.8C82.7942 129.8 82.3442 129.693 81.9375 129.48C81.5375 129.26 81.2208 128.957 80.9875 128.57C80.7608 128.177 80.6475 127.733 80.6475 127.24C80.6475 126.747 80.7608 126.307 80.9875 125.92C81.2208 125.533 81.5375 125.233 81.9375 125.02C82.3375 124.807 82.7875 124.7 83.2875 124.7C83.7342 124.7 84.1375 124.79 84.4975 124.97C84.8575 125.15 85.1475 125.41 85.3675 125.75V124.74H86.0475ZM83.3575 129.17C83.7375 129.17 84.0808 129.09 84.3875 128.93C84.6942 128.763 84.9308 128.533 85.0975 128.24C85.2708 127.947 85.3575 127.613 85.3575 127.24C85.3575 126.867 85.2708 126.537 85.0975 126.25C84.9308 125.957 84.6942 125.73 84.3875 125.57C84.0875 125.403 83.7442 125.32 83.3575 125.32C82.9775 125.32 82.6342 125.4 82.3275 125.56C82.0275 125.72 81.7908 125.947 81.6175 126.24C81.4508 126.533 81.3675 126.867 81.3675 127.24C81.3675 127.613 81.4508 127.947 81.6175 128.24C81.7908 128.533 82.0275 128.763 82.3275 128.93C82.6342 129.09 82.9775 129.17 83.3575 129.17Z" fill="#A3A3A3"/>
<path d="M112.5 123.64H110.04V123H115.7V123.64H113.24V130H112.5V123.64ZM120.765 127.59H116.365C116.405 128.137 116.615 128.58 116.995 128.92C117.375 129.253 117.855 129.42 118.435 129.42C118.762 129.42 119.062 129.363 119.335 129.25C119.609 129.13 119.845 128.957 120.045 128.73L120.445 129.19C120.212 129.47 119.919 129.683 119.565 129.83C119.219 129.977 118.835 130.05 118.415 130.05C117.875 130.05 117.395 129.937 116.975 129.71C116.562 129.477 116.239 129.157 116.005 128.75C115.772 128.343 115.655 127.883 115.655 127.37C115.655 126.857 115.765 126.397 115.985 125.99C116.212 125.583 116.519 125.267 116.905 125.04C117.299 124.813 117.739 124.7 118.225 124.7C118.712 124.7 119.149 124.813 119.535 125.04C119.922 125.267 120.225 125.583 120.445 125.99C120.665 126.39 120.775 126.85 120.775 127.37L120.765 127.59ZM118.225 125.31C117.719 125.31 117.292 125.473 116.945 125.8C116.605 126.12 116.412 126.54 116.365 127.06H120.095C120.049 126.54 119.852 126.12 119.505 125.8C119.165 125.473 118.739 125.31 118.225 125.31ZM122.9 125.77C123.067 125.417 123.314 125.15 123.64 124.97C123.974 124.79 124.384 124.7 124.87 124.7V125.39L124.7 125.38C124.147 125.38 123.714 125.55 123.4 125.89C123.087 126.23 122.93 126.707 122.93 127.32V130H122.22V124.74H122.9V125.77Z" fill="#A3A3A3"/>
<path d="M156.19 130.59C155.977 130.85 155.723 131.047 155.43 131.18C155.143 131.32 154.83 131.39 154.49 131.39C154.077 131.39 153.683 131.287 153.31 131.08C152.943 130.88 152.53 130.54 152.07 130.06C151.397 130.04 150.79 129.873 150.25 129.56C149.71 129.247 149.287 128.823 148.98 128.29C148.673 127.757 148.52 127.16 148.52 126.5C148.52 125.827 148.677 125.22 148.99 124.68C149.31 124.14 149.75 123.717 150.31 123.41C150.877 123.097 151.507 122.94 152.2 122.94C152.893 122.94 153.517 123.093 154.07 123.4C154.63 123.707 155.07 124.133 155.39 124.68C155.71 125.22 155.87 125.827 155.87 126.5C155.87 127.087 155.747 127.627 155.5 128.12C155.26 128.607 154.92 129.013 154.48 129.34C154.047 129.667 153.547 129.883 152.98 129.99C153.493 130.53 154 130.8 154.5 130.8C155.02 130.8 155.463 130.587 155.83 130.16L156.19 130.59ZM149.25 126.5C149.25 127.047 149.377 127.54 149.63 127.98C149.89 128.42 150.243 128.767 150.69 129.02C151.143 129.273 151.647 129.4 152.2 129.4C152.753 129.4 153.253 129.273 153.7 129.02C154.147 128.767 154.497 128.42 154.75 127.98C155.003 127.54 155.13 127.047 155.13 126.5C155.13 125.953 155.003 125.46 154.75 125.02C154.497 124.58 154.147 124.233 153.7 123.98C153.253 123.727 152.753 123.6 152.2 123.6C151.647 123.6 151.143 123.727 150.69 123.98C150.243 124.233 149.89 124.58 149.63 125.02C149.377 125.46 149.25 125.953 149.25 126.5ZM162.119 124.74V130H161.439V129.04C161.252 129.36 160.995 129.61 160.669 129.79C160.342 129.963 159.969 130.05 159.549 130.05C158.862 130.05 158.319 129.86 157.919 129.48C157.525 129.093 157.329 128.53 157.329 127.79V124.74H158.039V127.72C158.039 128.273 158.175 128.693 158.449 128.98C158.722 129.267 159.112 129.41 159.619 129.41C160.172 129.41 160.609 129.243 160.929 128.91C161.249 128.57 161.409 128.1 161.409 127.5V124.74H162.119ZM165.947 124.7C166.634 124.7 167.161 124.873 167.527 125.22C167.894 125.56 168.077 126.067 168.077 126.74V130H167.397V129.18C167.237 129.453 167.001 129.667 166.687 129.82C166.381 129.973 166.014 130.05 165.587 130.05C165.001 130.05 164.534 129.91 164.187 129.63C163.841 129.35 163.667 128.98 163.667 128.52C163.667 128.073 163.827 127.713 164.147 127.44C164.474 127.167 164.991 127.03 165.697 127.03H167.367V126.71C167.367 126.257 167.241 125.913 166.987 125.68C166.734 125.44 166.364 125.32 165.877 125.32C165.544 125.32 165.224 125.377 164.917 125.49C164.611 125.597 164.347 125.747 164.127 125.94L163.807 125.41C164.074 125.183 164.394 125.01 164.767 124.89C165.141 124.763 165.534 124.7 165.947 124.7ZM165.697 129.49C166.097 129.49 166.441 129.4 166.727 129.22C167.014 129.033 167.227 128.767 167.367 128.42V127.56H165.717C164.817 127.56 164.367 127.873 164.367 128.5C164.367 128.807 164.484 129.05 164.717 129.23C164.951 129.403 165.277 129.49 165.697 129.49Z" fill="#A3A3A3"/>
<path d="M200.19 130.59C199.977 130.85 199.723 131.047 199.43 131.18C199.143 131.32 198.83 131.39 198.49 131.39C198.077 131.39 197.683 131.287 197.31 131.08C196.943 130.88 196.53 130.54 196.07 130.06C195.397 130.04 194.79 129.873 194.25 129.56C193.71 129.247 193.287 128.823 192.98 128.29C192.673 127.757 192.52 127.16 192.52 126.5C192.52 125.827 192.677 125.22 192.99 124.68C193.31 124.14 193.75 123.717 194.31 123.41C194.877 123.097 195.507 122.94 196.2 122.94C196.893 122.94 197.517 123.093 198.07 123.4C198.63 123.707 199.07 124.133 199.39 124.68C199.71 125.22 199.87 125.827 199.87 126.5C199.87 127.087 199.747 127.627 199.5 128.12C199.26 128.607 198.92 129.013 198.48 129.34C198.047 129.667 197.547 129.883 196.98 129.99C197.493 130.53 198 130.8 198.5 130.8C199.02 130.8 199.463 130.587 199.83 130.16L200.19 130.59ZM193.25 126.5C193.25 127.047 193.377 127.54 193.63 127.98C193.89 128.42 194.243 128.767 194.69 129.02C195.143 129.273 195.647 129.4 196.2 129.4C196.753 129.4 197.253 129.273 197.7 129.02C198.147 128.767 198.497 128.42 198.75 127.98C199.003 127.54 199.13 127.047 199.13 126.5C199.13 125.953 199.003 125.46 198.75 125.02C198.497 124.58 198.147 124.233 197.7 123.98C197.253 123.727 196.753 123.6 196.2 123.6C195.647 123.6 195.143 123.727 194.69 123.98C194.243 124.233 193.89 124.58 193.63 125.02C193.377 125.46 193.25 125.953 193.25 126.5ZM206.119 124.74V130H205.439V129.04C205.252 129.36 204.995 129.61 204.669 129.79C204.342 129.963 203.969 130.05 203.549 130.05C202.862 130.05 202.319 129.86 201.919 129.48C201.525 129.093 201.329 128.53 201.329 127.79V124.74H202.039V127.72C202.039 128.273 202.175 128.693 202.449 128.98C202.722 129.267 203.112 129.41 203.619 129.41C204.172 129.41 204.609 129.243 204.929 128.91C205.249 128.57 205.409 128.1 205.409 127.5V124.74H206.119ZM208.107 124.74H208.817V130H208.107V124.74ZM208.467 123.59C208.321 123.59 208.197 123.54 208.097 123.44C207.997 123.34 207.947 123.22 207.947 123.08C207.947 122.947 207.997 122.83 208.097 122.73C208.197 122.63 208.321 122.58 208.467 122.58C208.614 122.58 208.737 122.63 208.837 122.73C208.937 122.823 208.987 122.937 208.987 123.07C208.987 123.217 208.937 123.34 208.837 123.44C208.737 123.54 208.614 123.59 208.467 123.59Z" fill="#A3A3A3"/>
<path d="M235.07 130.06C234.55 130.06 234.05 129.977 233.57 129.81C233.097 129.643 232.73 129.423 232.47 129.15L232.76 128.58C233.013 128.833 233.35 129.04 233.77 129.2C234.19 129.353 234.623 129.43 235.07 129.43C235.697 129.43 236.167 129.317 236.48 129.09C236.793 128.857 236.95 128.557 236.95 128.19C236.95 127.91 236.863 127.687 236.69 127.52C236.523 127.353 236.317 127.227 236.07 127.14C235.823 127.047 235.48 126.947 235.04 126.84C234.513 126.707 234.093 126.58 233.78 126.46C233.467 126.333 233.197 126.143 232.97 125.89C232.75 125.637 232.64 125.293 232.64 124.86C232.64 124.507 232.733 124.187 232.92 123.9C233.107 123.607 233.393 123.373 233.78 123.2C234.167 123.027 234.647 122.94 235.22 122.94C235.62 122.94 236.01 122.997 236.39 123.11C236.777 123.217 237.11 123.367 237.39 123.56L237.14 124.15C236.847 123.957 236.533 123.813 236.2 123.72C235.867 123.62 235.54 123.57 235.22 123.57C234.607 123.57 234.143 123.69 233.83 123.93C233.523 124.163 233.37 124.467 233.37 124.84C233.37 125.12 233.453 125.347 233.62 125.52C233.793 125.687 234.007 125.817 234.26 125.91C234.52 125.997 234.867 126.093 235.3 126.2C235.813 126.327 236.227 126.453 236.54 126.58C236.86 126.7 237.13 126.887 237.35 127.14C237.57 127.387 237.68 127.723 237.68 128.15C237.68 128.503 237.583 128.827 237.39 129.12C237.203 129.407 236.913 129.637 236.52 129.81C236.127 129.977 235.643 130.06 235.07 130.06ZM243.722 127.59H239.322C239.362 128.137 239.572 128.58 239.952 128.92C240.332 129.253 240.812 129.42 241.392 129.42C241.719 129.42 242.019 129.363 242.292 129.25C242.566 129.13 242.802 128.957 243.002 128.73L243.402 129.19C243.169 129.47 242.876 129.683 242.522 129.83C242.176 129.977 241.792 130.05 241.372 130.05C240.832 130.05 240.352 129.937 239.932 129.71C239.519 129.477 239.196 129.157 238.962 128.75C238.729 128.343 238.612 127.883 238.612 127.37C238.612 126.857 238.722 126.397 238.942 125.99C239.169 125.583 239.476 125.267 239.862 125.04C240.256 124.813 240.696 124.7 241.182 124.7C241.669 124.7 242.106 124.813 242.492 125.04C242.879 125.267 243.182 125.583 243.402 125.99C243.622 126.39 243.732 126.85 243.732 127.37L243.722 127.59ZM241.182 125.31C240.676 125.31 240.249 125.473 239.902 125.8C239.562 126.12 239.369 126.54 239.322 127.06H243.052C243.006 126.54 242.809 126.12 242.462 125.8C242.122 125.473 241.696 125.31 241.182 125.31ZM248.381 130L246.711 127.8L245.031 130H244.231L246.311 127.3L244.331 124.74H245.131L246.711 126.8L248.291 124.74H249.071L247.091 127.3L249.191 130H248.381Z" fill="#A3A3A3"/>
<path d="M275.07 130.06C274.55 130.06 274.05 129.977 273.57 129.81C273.097 129.643 272.73 129.423 272.47 129.15L272.76 128.58C273.013 128.833 273.35 129.04 273.77 129.2C274.19 129.353 274.623 129.43 275.07 129.43C275.697 129.43 276.167 129.317 276.48 129.09C276.793 128.857 276.95 128.557 276.95 128.19C276.95 127.91 276.863 127.687 276.69 127.52C276.523 127.353 276.317 127.227 276.07 127.14C275.823 127.047 275.48 126.947 275.04 126.84C274.513 126.707 274.093 126.58 273.78 126.46C273.467 126.333 273.197 126.143 272.97 125.89C272.75 125.637 272.64 125.293 272.64 124.86C272.64 124.507 272.733 124.187 272.92 123.9C273.107 123.607 273.393 123.373 273.78 123.2C274.167 123.027 274.647 122.94 275.22 122.94C275.62 122.94 276.01 122.997 276.39 123.11C276.777 123.217 277.11 123.367 277.39 123.56L277.14 124.15C276.847 123.957 276.533 123.813 276.2 123.72C275.867 123.62 275.54 123.57 275.22 123.57C274.607 123.57 274.143 123.69 273.83 123.93C273.523 124.163 273.37 124.467 273.37 124.84C273.37 125.12 273.453 125.347 273.62 125.52C273.793 125.687 274.007 125.817 274.26 125.91C274.52 125.997 274.867 126.093 275.3 126.2C275.813 126.327 276.227 126.453 276.54 126.58C276.86 126.7 277.13 126.887 277.35 127.14C277.57 127.387 277.68 127.723 277.68 128.15C277.68 128.503 277.583 128.827 277.39 129.12C277.203 129.407 276.913 129.637 276.52 129.81C276.127 129.977 275.643 130.06 275.07 130.06ZM280.982 124.7C281.669 124.7 282.196 124.873 282.562 125.22C282.929 125.56 283.112 126.067 283.112 126.74V130H282.432V129.18C282.272 129.453 282.036 129.667 281.722 129.82C281.416 129.973 281.049 130.05 280.622 130.05C280.036 130.05 279.569 129.91 279.222 129.63C278.876 129.35 278.702 128.98 278.702 128.52C278.702 128.073 278.862 127.713 279.182 127.44C279.509 127.167 280.026 127.03 280.732 127.03H282.402V126.71C282.402 126.257 282.276 125.913 282.022 125.68C281.769 125.44 281.399 125.32 280.912 125.32C280.579 125.32 280.259 125.377 279.952 125.49C279.646 125.597 279.382 125.747 279.162 125.94L278.842 125.41C279.109 125.183 279.429 125.01 279.802 124.89C280.176 124.763 280.569 124.7 280.982 124.7ZM280.732 129.49C281.132 129.49 281.476 129.4 281.762 129.22C282.049 129.033 282.262 128.767 282.402 128.42V127.56H280.752C279.852 127.56 279.402 127.873 279.402 128.5C279.402 128.807 279.519 129.05 279.752 129.23C279.986 129.403 280.312 129.49 280.732 129.49ZM287.751 124.7C288.244 124.7 288.691 124.813 289.091 125.04C289.491 125.26 289.804 125.573 290.031 125.98C290.257 126.387 290.371 126.85 290.371 127.37C290.371 127.89 290.257 128.353 290.031 128.76C289.804 129.167 289.491 129.483 289.091 129.71C288.691 129.937 288.244 130.05 287.751 130.05C287.311 130.05 286.914 129.957 286.561 129.77C286.214 129.583 285.934 129.313 285.721 128.96V130H285.041V122.58H285.751V125.74C285.971 125.4 286.251 125.143 286.591 124.97C286.937 124.79 287.324 124.7 287.751 124.7ZM287.701 129.42C288.067 129.42 288.401 129.337 288.701 129.17C289.001 128.997 289.234 128.753 289.401 128.44C289.574 128.127 289.661 127.77 289.661 127.37C289.661 126.97 289.574 126.613 289.401 126.3C289.234 125.987 289.001 125.747 288.701 125.58C288.401 125.407 288.067 125.32 287.701 125.32C287.327 125.32 286.991 125.407 286.691 125.58C286.397 125.747 286.164 125.987 285.991 126.3C285.824 126.613 285.741 126.97 285.741 127.37C285.741 127.77 285.824 128.127 285.991 128.44C286.164 128.753 286.397 128.997 286.691 129.17C286.991 129.337 287.327 129.42 287.701 129.42Z" fill="#A3A3A3"/>
<rect x="20.25" y="8.25" width="267.5" height="0.5" stroke="#ECECEC" stroke-width="0.5" stroke-dasharray="5 5"/>
<rect x="20.25" y="40.25" width="267.5" height="0.5" stroke="#ECECEC" stroke-width="0.5" stroke-dasharray="5 5"/>
<rect x="20.25" y="72.25" width="267.5" height="0.5" stroke="#ECECEC" stroke-width="0.5" stroke-dasharray="5 5"/>
<rect x="20.25" y="104.25" width="267.5" height="0.5" stroke="#ECECEC" stroke-width="0.5" stroke-dasharray="5 5"/>
<path d="M19 104C40.2044 104 52.5736 40.8325 81.4352 40.8325C110.297 40.8325 107.941 40.8325 126.2 40.8325C144.459 40.8325 146.815 9 167.431 9C188.046 9 182.745 72.1675 207.484 72.1675C240.468 72.1675 232.811 72.1675 247.536 72.1675C262.262 72.1675 264.618 86.5916 287 86.5916" stroke="#4894FF" stroke-width="3" stroke-linecap="round"/>
<path d="M19.5 88C45.5 88 59 73 76 73C93 73 96 88 116.5 88C137 88 144 40.5 161.5 40.5C179 40.5 179 9 195.5 9C212 9 230.777 25.6209 239 40.5C249.5 59.5 269 104.5 286.5 104.5" stroke="#FFB050" stroke-width="3" stroke-linecap="round"/>
</svg>
