<?xml version="1.0" encoding="UTF-8"?>
<svg version="1.1" viewBox="0 0 1536 1024" width="1536" height="1024" xmlns="http://www.w3.org/2000/svg">
<path transform="translate(0)" d="m0 0h1536v1024h-1536z" fill="#FCF8F4"/>
<path transform="translate(368,215)" d="m0 0h9l6 2 4 5 7 31 7 3 23 6 12 4 5-1 16-16 7-5 7 1 16 10 16 11 14 10 4 6-2 9-8 19v5l8 8 9 11 10 13-1 6v8l5 18v17l-1 44h-1l-6-21-9-21-9-17-11-16-11-13-7-8-14-13-15-11-23-12-23-9-25-6-15-2h-40l-24 4-20 6-15 6-21 11-14 10-11 9-19 19-11 15-11 18-10 21-7 21-4 17-3 27v16l2 23 5 23 7 20 10 19 3 3 15-11 16-9 22-10 18-8 2-1 5-12 4-6 7-6-3-10-3-13-6-2-10-9-6-10-4-12-1-5v-12l4-12-11-3-12-6-9-7-3-5-1-5 3-6 10-6 13-4 25-4 2-1 4-22 5-18 6-11 9-10 9-6 11-4 5-1h15l17 5 10 4h9l16-10 3-1h12l8 4 8 9 6 10 9 25 10 33v3l13 2 15 4 12 6 4 5-1 7-8 7-12 5-13 3h-7v27l-3 27-5 21-6 15-9 13-6 6 2 5 3 9 15 6 13 7 9 7 14 14v-50l3-5 21-21v-27l-8-5-6-7-2-5v-13l4-8 8-7 5-2h13l8 4 7 8 2 6v12l-4 8-8 7-5 1v33l-7 8-16 16v68l8-7 19-19 1-38 3-10 9-11 7-14 3-7 5-4 6-1-5-13-1-11 5-6 3-1h12l-1-97-4-10 2-9 11-32 1-1h14l3 5 12 34-3 10-2 7v92l11 2 5 4 1 2v9l-3 12 11 4 6 7 1 3v11l-3 8 5 10v7l-3 8-2 3 4 8v9l-4 8 1 12-3 9-7 8-5 4-10 5-6 5-9 4-10 1-5 7-8 6-7 12-9 11-15 15-3 2 1 11-4 6-22 14-23 14-8 1-8-7-17-17-9 1-24 8-3 13-3 17-5 5-4 1-33 1h-23l-5-3-4-11-6-19-15-4-12-3h-6l-9 10-8 10-5 5h-8l-32-16-18-10-4-6 1-8 5-19-1-5-17-16-11-10h-8l-23 7-7-1-5-5-10-15-13-21-4-7v-9l20-20 1-7-7-19-3-10-3-2-21-3-7-2-3-3-1-3-1-21v-37l5-4 25-8 2-3 4-23v-5l-16-12-7-5-2-4v-6l15-36 7-16 4-3h8l20 4h6l13-16 12-14 3-3-1-7-9-22v-6l4-5 22-15 15-10 10-6 7 1 8 7 12 11 4 3 10-3 25-7 9-3 7-29 3-5 2-2 4-1z" fill="#002842"/>
<path transform="translate(297,410)" d="m0 0h24l67 8 40 2 1 4v32l-2 22-4 21-6 15-7 11-6 7-10 7-11 5-10 2h-18l-19-4-14-5-13-7-8-7-9-12-7-16-3-12-10-3-8-7-5-11-2-8v-8l3-6 4-2h10l6 8 4 6h7l4-8 1-8z" fill="#FCF8F4"/>
<path transform="translate(1246,287)" d="m0 0h12l10 2 9 4 8 6 6 7 5 11 3 12 1 8v37l-3 18-4 10-8 11-9 7-10 4-5 1h-18l-13-4-10-7-6-8-5-10-3-11-1-7v-45l4-17 6-12 4-5 10-7 11-4z" fill="#002842"/>
<path transform="translate(793,287)" d="m0 0h11l16 4 10 7 6 7 6 12 3 13 1 11v29l-2 17-4 13-7 11-9 8-8 4-8 2h-18l-13-4-9-6-8-9-6-14-2-9-1-10v-35l3-18 5-12 7-9 9-7 11-4z" fill="#002842"/>
<path transform="translate(1100,289)" d="m0 0h36l15 2 12 5 9 6 9 10 5 12 3 16v29l-3 19-4 10-8 11-9 7-8 4-13 3h-44l-1-1v-132z" fill="#002842"/>
<path transform="translate(979,289)" d="m0 0h27l3 2 18 71 14 56-1 5h-24l-2-2-5-21v-3h-33l-2 12-3 12-2 2h-23l-2-2 2-10 29-115 2-6z" fill="#002842"/>
<path transform="translate(1247,462)" d="m0 0h16l10 4 7 6 6 12 2 9v52l-2 9-6 10-1 4 2 5 9 2-1 5-7 7h-6l-8-7-2-6h-20l-9-4-5-4-6-10-3-11-1-10v-30l2-18 5-12 7-8 7-4z" fill="#002842"/>
<path transform="translate(670,463)" d="m0 0h30l13 4 8 6 6 9 3 9 2 16v21l-2 17-4 11-7 9-7 5-9 3-7 1h-25l-2-1v-109z" fill="#002842"/>
<path transform="translate(1011,463)" d="m0 0h33l10 3 6 4 6 8 3 10v17l-3 10-6 9-4 3 1 5 13 37-1 4-1 1h-16l-3-2-13-41h-6v40l-2 3h-17l-1-1v-109z" fill="#002942"/>
<path transform="translate(933,463)" d="m0 0h18l3 5 17 45 6 15v-63l1-2h16l1 1v109l-1 1h-16l-3-3-15-39-8-20v-4h-2l1 32v32l-2 2h-15l-2-2v-107z" fill="#002A43"/>
<path transform="translate(671,289)" d="m0 0h23l2 2v108h42l3 2v20l-2 2h-69l-1-2v-130z" fill="#002842"/>
<path transform="translate(1101,463)" d="m0 0h22l3 5 21 102-2 4h-16l-3-7-2-10v-5h-23l-2 14-2 7-1 1h-16l-2-3 11-57 10-48z" fill="#002942"/>
<path transform="translate(1303,463)" d="m0 0h18l1 1 1 83 3 6 3 2h7l5-3 2-6 1-82 1-1h18l1 1v86l-3 10-6 8-6 4-6 2h-20l-9-4-7-6-4-9-1-5v-86z" fill="#002842"/>
<path transform="translate(907,289)" d="m0 0h22l2 2v103l-3 10-5 8-9 8-10 4-4 1h-18l-11-4-6-4-7-8-4-8 1-4 14-7 6-1 5 8 5 3h11l5-4 2-5 1-8v-91z" fill="#002942"/>
<path transform="translate(822,462)" d="m0 0h18l8 4 7 8 4 13-1 4-7 2-9 1-2-2-3-9-3-2h-7l-3 3-1 3v8l4 6 9 8 12 9 8 9 4 11v15l-4 10-8 8-8 3h-18l-9-3-5-4-5-8-2-7v-7l10-3 6-1 3 7 3 5 3 2h8l4-1 1-3v-11l-7-8-13-10-11-10-5-10-1-5v-12l3-10 8-9z" fill="#002842"/>
<path transform="translate(1175,462)" d="m0 0h17l10 5 6 8 3 8v8l-9 2h-9l-3-10-3-2h-7l-3 3-1 3v7l6 9 14 11 10 9 5 10 2 13-2 11-6 10-7 5-6 2h-19l-9-4-6-7-4-11v-7l8-3 8-1 3 7 2 6 4 1h8l4-3 1-3v-7l-3-6-7-7-13-10-8-8-4-8-2-9 1-13 4-9 8-7z" fill="#002842"/>
<path transform="translate(872,463)" d="m0 0h47l1 1v16l-1 1-26 1-1 1v25h22l1 1v16l-1 1h-22v29h28l1 2v15l-2 2h-46l-2-2v-107z" fill="#002942"/>
<path transform="translate(745,463)" d="m0 0h46l1 1v17l-27 1v25l21 1 2 2v15l-1 1-22 1v27l27 1 1 1v16l-2 2h-45l-2-2v-108z" fill="#002842"/>
<path transform="translate(1379,463)" d="m0 0h46l1 1v17l-27 1v25l21 1 1 1v16l-1 1-21 1v27l28 1v18l-1 1h-46l-2-2v-108z" fill="#002842"/>
<path transform="translate(493,440)" d="m0 0h13l8 4 7 8 2 6v12l-4 8-8 7-6 1v31l-3 5-20 20-1 6v59l-7-6-5-7-1-4v-50l3-5 21-21v-27l-8-5-6-7-2-5v-13l4-8 8-7z" fill="#0B5A60"/>
<path transform="translate(1247,311)" d="m0 0h11l8 5 4 8 2 8v49l-3 10-4 6-6 4-7 1-8-2-7-6-4-11-1-13v-30l1-11 4-10 4-5z" fill="#FCF8F4"/>
<path transform="translate(793,311)" d="m0 0h10l6 3 5 5 3 8 1 6v44l-2 12-5 8-6 4-8 1-9-3-6-7-3-10v-51l3-10 7-8z" fill="#FCF8F4"/>
<path transform="translate(1126,312)" d="m0 0h11l9 2 6 4 5 6 3 9 1 7v32l-3 14-4 6-6 5-5 2-6 1h-10l-2-1v-86z" fill="#FCF8F4"/>
<path transform="translate(545,512)" d="m0 0 4 2 2 4v8l-3 9-6 8 1 20 1 39 2 9 4 6 10 9-5 5-3 1-2 4-1 1h-8l-8-4-6-5-7-10-3-7-1-10 6 4 5 4h6l2-5-3-5-6-5-3-8v-36l4-8 8-10 6-13 3-6z" fill="#FCF8F4"/>
<path transform="translate(288,528)" d="m0 0 5 5 9 10 14 11 16 10 20 9 2 2-1 4-14 23-2 5-6-3-11-9-12-11-11-14-8-13-4-11v-11z" fill="#0D6265"/>
<path transform="translate(551,482)" d="m0 0h44l-1 7-4 11-13 7-5 4-3 6v13l1 6-5 7-1 11 3 8 3 4-1 6v12l5 8 1 4v12l4 9-7 1-7-3-8-7-2-8-1-52 8-17 1-5v-14l-4-11-7-14z" fill="#0D6265"/>
<path transform="translate(1252,480)" d="m0 0h7l6 5 3 10v47l-3 9-4 4-2 1h-7l-6-4-3-8-1-8v-37l2-11 4-6z" fill="#FCF8F4"/>
<path transform="translate(688,481)" d="m0 0h10l8 4 4 7 2 9v33l-2 11-4 6-4 3-4 1h-9l-1-1z" fill="#FCF8F4"/>
<path transform="translate(361,376)" d="m0 0h33l19 3 8 5 2 3v6h-41l-40-2-43-4 2-2 31-6z" fill="#0D6265"/>
<path transform="translate(574,337)" d="m0 0 2 3 6 18-1 8-1 5-1 98h-9v-96l-3-10 1-8z" fill="#FCF8F4"/>
<path transform="translate(762,622)" d="m0 0h7l5 3 3 3 2 9-1 13-3 5-3 3-9 1-6-3-3-4-1-3v-17l3-6 3-3z" fill="#084D58"/>
<path transform="translate(1275,622)" d="m0 0h7l6 4 3 7v15l-3 7-4 3-9 1-6-4-3-5-1-6v-8l3-9 4-4z" fill="#084E59"/>
<path transform="translate(1043,622)" d="m0 0h7l5 3 3 3 2 8-1 14-3 5-3 3-9 1-6-3-3-4-1-4v-15l3-7z" fill="#084E58"/>
<path transform="translate(1330,622)" d="m0 0h7l5 3 4 6v18l-3 6-3 3-9 1-5-2-4-5-1-2v-19l3-5 3-3z" fill="#084C57"/>
<path transform="translate(1103,623)" d="m0 0h10l5 21 1 2 5-21 1-2h10v35h-7l-1-21-5 20-1 1h-5l-5-18v-6h-2l1 2v22h-7z" fill="#064453"/>
<path transform="translate(1235,623)" d="m0 0h7l9 19v3l1-1v-21h8v35h-8l-10-20v20h-7z" fill="#09505A"/>
<path transform="translate(785,623)" d="m0 0h16l5 3 1 2v11l-4 5 5 12v2h-7l-5-11v-2h-4v13h-7z" fill="#084F59"/>
<path transform="translate(992,324)" d="m0 0 2 4 10 45-1 2h-21l-1-3 10-45z" fill="#FCF8F4"/>
<path transform="translate(1030,481)" d="m0 0h13l5 5 1 2v17l-2 5-4 3h-13l-1-1v-30z" fill="#FCF8F4"/>
<path transform="translate(959,623)" d="m0 0h7l8 15 2 5 1-20h7v35h-7l-10-20-1 20h-7z" fill="#084F5A"/>
<path transform="translate(725,623)" d="m0 0h16l4 2 3 7-1 8-4 4-2 1h-9v13h-7z" fill="#084F59"/>
<path transform="translate(1361,622)" d="m0 0h7l5 3 3 4v5h-6l-3-5h-5l-2 3v17l2 3h6v-7h-4v-6h12v16l-8 4-10-1-5-6-2-8 1-13 3-6z" fill="#09525B"/>
<path transform="translate(602,537)" d="m0 0h8l3 3v6l-4 5-15 5-11 3-5-1-3-4v-6l4-4z" fill="#FCF8F4"/>
<path transform="translate(1405,623)" d="m0 0h8l9 35h-8l-1-7h-9l-1 7h-8l9-34z" fill="#084E58"/>
<path transform="translate(694,623)" d="m0 0h7l1 28 1 1h5l2-3 1-26h7v27l-3 6-6 3-9-1-5-4-1-2z" fill="#084F59"/>
<path transform="translate(352,506)" d="m0 0h44l2 3-1 5-2 2-11 2h-15l-15-2-4-3v-5z" fill="#002B43"/>
<path transform="translate(674,622)" d="m0 0h7l6 4 2 7-4 1-4-1-1-4h-5l-1 4v2l6 2 6 4 3 4-1 9-4 4-9 1-6-3-3-3v-6h6l3 5h5l1-1v-5l-11-6-3-3-1-7 3-5z" fill="#09515B"/>
<path transform="translate(840,623)" d="m0 0h19v6l-11-1v9h9v6h-9v8l11 1v6h-19z" fill="#084E59"/>
<path transform="translate(600,510)" d="m0 0 9 1 2 2v7l-4 4-21 7-5-1-2-2v-6l3-5 10-5z" fill="#FCF8F4"/>
<path transform="translate(1213,622)" d="m0 0h7l6 3 3 6v3h-7l-3-5h-5l-2 4v15l2 4h5l3-5h7l-2 7-4 4-9 1-6-3-3-4-1-4v-15l3-7 3-3z" fill="#084D58"/>
<path transform="translate(938,622)" d="m0 0h7l6 3 3 5v4h-7l-2-5h-6l-2 4v15l1 3 6 1h2l1-5h7l-1 6-5 5-9 1-6-3-4-8v-15l3-7z" fill="#084C58"/>
<path transform="translate(1014,622)" d="m0 0 9 1 5 5 1 6h-7l-1-5h-7l-2 5v13l1 5h7l2-5h7l-1 6-5 5-9 1-6-3-3-5-1-4v-13l3-8 4-3z" fill="#084C58"/>
<path transform="translate(391,560)" d="m0 0h6v17l-2 18-2 8-4-2-5-8-5-5 1-4 10-23z" fill="#0D6265"/>
<path transform="translate(605,564)" d="m0 0 5 1 2 2v6l-4 5-9 4-11 3-7-1-2-4 1-6 5-4 16-5z" fill="#FCF8F4"/>
<path transform="translate(905,623)" d="m0 0h19v5l-3 1h-8l-1 8h10v6h-10v9h11l1 1v5h-19z" fill="#0C6164"/>
<path transform="translate(1180,623)" d="m0 0h19v5l-2 1h-9v7l9 1v6h-10v9h12v6h-19z" fill="#084E59"/>
<path transform="translate(1078,623)" d="m0 0h19v5l-2 1h-9l-1 8h10v6h-10v9h12v6h-19z" fill="#084D58"/>
<path transform="translate(403,433)" d="m0 0 6 1 5 6v11l-4 6-3 2h-5l-5-6-1-4v-9l3-5z" fill="#002942"/>
<path transform="translate(1111,492)" d="m0 0h2l7 37v5h-16l1-10z" fill="#FCF8F4"/>
<path transform="translate(343,432)" d="m0 0 6 1 4 5 1 3v10l-5 6-2 1h-7l-4-8v-7l3-8z" fill="#002942"/>
<path transform="translate(496,453)" d="m0 0h7l6 5 1 2v7l-3 5-4 2h-7l-5-3-2-4v-7l5-6z" fill="#FCF8F4"/>
<path transform="translate(811,623)" d="m0 0h25v5l-2 1-7-1v30h-7l-1-29h-7l-1-1z" fill="#0D6265"/>
<path transform="translate(1151,623)" d="m0 0h24v6l-8-1v30h-7l-1-29h-7l-1-1z" fill="#0C6164"/>
<path transform="translate(876,623)" d="m0 0h24v5h-9v30h-7v-30l-7 1h-1z" fill="#084E59"/>
<path transform="translate(1297,623)" d="m0 0h7v29h12v6h-19z" fill="#074956"/>
<path transform="translate(388,478)" d="m0 0h5l3 5-2 7-4 1h-16l-2-3v-6l2-3z" fill="#002943"/>
<path transform="translate(605,591)" d="m0 0 3 1-1 7-4 5-10 5h-5l-3-4v-6l3-3z" fill="#FCF8F4"/>
<path transform="translate(1044,628)" d="m0 0h5l3 3 1 12-1 7-3 3h-5l-3-4v-16z" fill="#FCF8F4"/>
<path transform="translate(1276,628)" d="m0 0h5l3 5v15l-3 5h-5l-3-3-1-10 1-9z" fill="#FCF8F4"/>
<path transform="translate(763,628)" d="m0 0h5l3 3v19l-3 3h-5l-3-4v-17z" fill="#FCF8F4"/>
<path transform="translate(1331,628)" d="m0 0h5l3 4v17l-3 4h-5l-3-4v-18z" fill="#FCF8F4"/>
<path transform="translate(1383,623)" d="m0 0h7v35h-7z" fill="#074B57"/>
<path transform="translate(991,623)" d="m0 0h7v35h-7z" fill="#084E59"/>
<path transform="translate(1126,624)" d="m0 0h7v33h-4l-1-23-2-1v2h-2l1-9z" fill="#0D6265"/>
<path transform="translate(905,623)" d="m0 0h18l-1 3v-2h-16v33h16v-3h-10l-1-1v-11l1-1h7l1-3h-9v-10l1-1h8v1l-7 1-1 8h10v6h-10v9h11l1 1v5h-19z" fill="#002B44"/>
<path transform="translate(811,623)" d="m0 0h25v5l-2 1-7-1v30h-7l-1-29h-7l-1-1zm2 1v3l7 1 1 29h5l1-29 7-1v-3z" fill="#002842"/>
<path transform="translate(1151,623)" d="m0 0h24v6l-8-1v-1h7v-3h-21v3h7l1 1v29h4v-28h1l1 29h-7l-1-29h-7l-1-1z" fill="#002842"/>
<path transform="translate(732,628)" d="m0 0 7 1 2 2-1 7-1 1h-7z" fill="#FCF8F4"/>
<path transform="translate(792,628)" d="m0 0 7 1 1 1v8l-1 1h-7z" fill="#FCF8F4"/>
<path transform="translate(1373,626)" d="m0 0 3 3v5h-6l-3-5h-5l-2 3v17l2 3 6 1v1h-7l-3-4-1-4v-11l3-7 1-1h7l3 4h3z" fill="#03354A"/>
<path transform="translate(811,623)" d="m0 0h25v5l-2 1-7-1v-1h7v-3h-21v3h7l-1 2h-7l-1-1z" fill="#013047"/>
<path transform="translate(1151,623)" d="m0 0h24v6l-8-1v-1h7v-3h-21v3h7l-1 2h-7l-1-1z" fill="#012E45"/>
<path transform="translate(674,622)" d="m0 0h7l6 4 2 7-4 1h-3l1-3 4 1-3-6-2-1h-12l1-2z" fill="#03364A"/>
<path transform="translate(1408,632)" d="m0 0 2 3 2 10h-6l1-8z" fill="#FCF8F4"/>
<path transform="translate(1373,626)" d="m0 0 3 3v5h-6l-3-5h-5l-3 3 1-4 1-1h7l3 4h3z" fill="#023449"/>
<path transform="translate(666,647)" d="m0 0h6l3 5 6 1v1h-7l-3-4-4-1 2 6-3-2z" fill="#03364B"/>
<path transform="translate(912,652)" d="m0 0h11l1 1v5l-4-1h2v-3h-10z" fill="#064452"/>
<path transform="translate(916,613)" d="m0 0h6l-6 7h-3l2-6z" fill="#053E4F"/>
</svg>
