<svg width="351" height="511" viewBox="0 0 351 511" fill="none" xmlns="http://www.w3.org/2000/svg">
<mask id="mask0_3598_1914" style="mask-type:alpha" maskUnits="userSpaceOnUse" x="15" y="10" width="312" height="500">
<path d="M15 10H327V510H15V10Z" fill="#F5F5F5"/>
</mask>
<g mask="url(#mask0_3598_1914)">
<path d="M9.5 371L181.5 433L358.96 444.689L370.533 509.479L-32.4879 510.114L9.5 371Z" fill="#FF4500"/>
<path d="M-33.0122 84.3426L138.988 146.343L328.021 136L328.021 146.343L-75.0001 223.456L-33.0122 84.3426Z" fill="#FF4500"/>
<path d="M61.5 383.5L327 343.5L327 289.5L327 162L15 311.5L61.5 383.5Z" fill="#FF4500"/>
<path d="M327 370L0.0551313 469L111.055 486.5L327 455.5L327 370Z" fill="#4682B4"/>
<path d="M15 397.5L342.041 298.233L102.5 333L15 311.5L15 397.5Z" fill="#4682B4"/>
<path d="M327.991 97.7418L0.950386 -1.52568L240.491 33.2418L327.991 11.7418L327.991 97.7418Z" fill="#4682B4"/>
<path d="M86.9998 227L339 144.5L132.5 179.5L12 133L86.9998 227Z" fill="#4682B4"/>
<path d="M310.444 490.816L-13.5566 363.195L238.443 427.817L334.943 391.317L310.444 490.816Z" fill="#FFD700"/>
<path d="M15.4993 164.233L339.5 291.854L95.5 242L8.5 291.854L15.4993 164.233Z" fill="#FFD700"/>
<path d="M14 134.5L340.5 7.19477L88.4999 71.8168L-8.0001 35.3168L14 134.5Z" fill="#FFD700"/>
</g>
</svg>
