<svg width="91" height="202" viewBox="0 0 91 202" fill="none" xmlns="http://www.w3.org/2000/svg">
<path d="M17.5822 202H0V165.312H2.37598C7.91993 165.312 12.1175 164.017 14.9687 161.427C17.8198 158.838 19.2454 155.169 19.2454 150.421V129.919C19.2454 122.006 20.5126 115.891 23.047 111.575C25.7398 107.115 29.7789 103.949 35.1645 102.079C40.55 100.209 47.5196 98.9858 56.0731 98.4103V103.59C47.5196 103.014 40.55 101.791 35.1645 99.9209C29.7789 98.0506 25.7398 94.9573 23.047 90.641C20.5126 86.1809 19.2454 79.9943 19.2454 72.0812V51.5791C19.2454 46.8312 17.8198 43.1624 14.9687 40.5727C12.1175 37.9829 7.91993 36.688 2.37598 36.688H0V0H17.5822C35.9565 0 49.7372 4.02849 58.9243 12.0855C68.2698 20.1424 72.9426 31.4366 72.9426 45.9679V73.1603C72.9426 76.3255 73.893 78.6994 75.7937 80.2821C77.6945 81.8647 80.1497 82.656 83.1593 82.656H91V119.344H83.1593C80.1497 119.344 77.6945 120.135 75.7937 121.718C73.893 123.157 72.9426 125.531 72.9426 128.84V156.032C72.9426 170.563 68.2698 181.858 58.9243 189.915C49.7372 197.972 35.9565 202 17.5822 202Z" fill="#4682B4" fill-opacity="0.7"/>
</svg>
