<svg width="240" height="102" viewBox="0 0 240 102" fill="none" xmlns="http://www.w3.org/2000/svg">
<path d="M212.514 76.9117H206.065V63.4698H206.937C208.97 63.4698 210.51 62.9954 211.555 62.0465C212.601 61.0977 213.124 59.7535 213.124 58.014V50.5024C213.124 47.6031 213.589 45.3628 214.518 43.7814C215.506 42.1473 216.987 40.9876 218.963 40.3024C220.938 39.6171 223.494 39.169 226.632 38.9582V40.8558C223.494 40.645 220.938 40.1969 218.963 39.5117C216.987 38.8264 215.506 37.6931 214.518 36.1117C213.589 34.4775 213.124 32.2109 213.124 29.3117V21.8C213.124 20.0605 212.601 18.7163 211.555 17.7675C210.51 16.8186 208.97 16.3442 206.937 16.3442H206.065V2.90234H212.514C219.253 2.90234 224.308 4.37831 227.677 7.33025C231.105 10.2822 232.819 14.4202 232.819 19.7442V29.707C232.819 30.8667 233.167 31.7365 233.865 32.3163C234.562 32.8961 235.462 33.1861 236.566 33.1861H239.442V46.6279H236.566C235.462 46.6279 234.562 46.9179 233.865 47.4977C233.167 48.0248 232.819 48.8946 232.819 50.107V60.0698C232.819 65.3938 231.105 69.5318 227.677 72.4838C224.308 75.4357 219.253 76.9117 212.514 76.9117Z" fill="#FFD700"/>
<path d="M41.3582 76.9117C34.7785 76.9271 27.9402 76.9117 21.5771 74.0093C17.3687 72.0898 15.4995 70.8997 11.7595 67.3834C8.0914 63.8671 5.21446 59.7409 3.12867 55.0047C1.04289 50.1967 0 44.9223 0 39.1814C0 33.4405 1.04289 28.202 3.12867 23.4658C5.21446 18.6578 8.0914 14.4957 11.7595 10.9794C15.4995 7.46313 19.8869 4.7721 24.9215 2.90631C30.0281 0.968772 35.5662 0 41.5358 0C48.5124 0 51.2786 0.104921 57.3209 1.45116C61.0828 2.28931 68.2047 5.07907 69.6558 5.80465C69.6558 5.80465 65.3887 10.4521 64.5768 14.5116C63.1256 21.7674 65.3023 28.2977 65.3023 28.2977C60.9489 23.2186 57.3209 21.4777 55.1442 20.3163C50.4859 17.8308 46.2109 17.6532 42.6147 17.6532C39.522 17.6532 36.681 18.1555 34.0918 19.1601C31.5025 20.1648 29.2729 21.6359 27.4029 23.5734C25.6048 25.4392 24.1663 27.6997 23.0875 30.3548C22.0805 33.01 21.5771 35.9522 21.5771 39.1814C21.5771 42.4106 22.0805 45.3528 23.0875 48.008C24.1663 50.6631 25.6048 52.9595 27.4029 54.897C29.2729 56.7628 31.5025 58.198 34.0918 59.2027C36.681 60.2073 39.522 60.7097 42.6147 60.7097C46.2109 60.7097 49.201 60.563 54.4186 58.0465C60.9489 54.897 64.5768 49.3395 66.7535 44.2605V76.9117C66.7535 76.9117 50.613 76.89 41.3582 76.9117Z" fill="#FF4500"/>
<path d="M86.5474 37.0221C81.9907 37.0395 81.4702 36.6041 79.2103 35.7683C76.9813 34.9324 75.0464 33.756 73.4057 32.239C71.7649 30.6911 70.4801 28.8801 69.5514 26.8059C68.6536 24.7317 68.2047 22.4717 68.2047 20.0261C68.2047 17.5494 68.6536 15.2895 69.5514 13.2462C70.4801 11.172 71.7649 9.37645 73.4057 7.8595C75.0464 6.31159 76.9813 5.1197 79.2103 4.28383C81.4702 3.44796 83.9159 3.03003 86.5474 3.03003C89.2098 3.03003 94.5578 3.44796 96.7868 4.28383C99.0158 5.1197 100.951 6.31159 102.591 7.8595C104.232 9.37645 105.502 11.172 106.399 13.2462C107.328 15.2895 107.792 17.5494 107.792 20.0261C107.792 22.4717 107.328 24.7317 106.399 26.8059C105.502 28.8801 104.232 30.6911 102.591 32.239C100.951 33.756 99.0158 34.9324 96.7868 35.7683C94.5578 36.6041 91.1041 37.0047 86.5474 37.0221ZM86.5474 28.1526C87.569 28.1526 89.391 28.2433 91.1041 27.7346C92.5638 27.3012 93.9541 26.6975 94.6042 26.0165C95.2853 25.3044 95.8116 24.4531 96.1831 23.4624C96.5546 22.4408 96.7404 21.2953 96.7404 20.0261C96.7404 18.7568 96.5546 17.6268 96.1831 16.6361C95.8116 15.6145 95.2853 14.7632 94.6042 14.0821C93.9541 13.37 92.3413 12.3755 90.6389 11.8995C89.1724 11.4895 88.2018 11.6093 86.7506 11.6093C85.729 11.6093 84.5661 12.0853 83.6683 12.4568C82.8014 12.8283 82.0275 13.37 81.3464 14.0821C80.6963 14.7632 80.1855 15.6145 79.814 16.6361C79.4425 17.6268 79.2567 18.7568 79.2567 20.0261C79.2567 21.2953 79.4425 22.4408 79.814 23.4624C80.1855 24.4531 80.6963 25.3044 81.3464 26.0165C82.0275 26.6975 82.8014 27.2238 83.6683 27.5953C84.5661 27.9668 85.5258 28.1526 86.5474 28.1526Z" fill="#FF4500"/>
<path d="M111.74 36.2791V3.77303H127.76C131.383 3.77303 134.571 4.43863 137.326 5.76983C140.082 7.07007 142.233 8.92756 143.781 11.3423C145.329 13.757 146.103 16.6361 146.103 19.9796C146.103 23.3541 145.329 26.2641 143.781 28.7098C142.233 31.1246 140.082 32.9975 137.326 34.3287C134.571 35.629 131.383 36.2791 127.76 36.2791H111.74ZM122.699 27.7346H127.296C128.844 27.7346 130.191 27.4405 131.336 26.8523C132.513 26.2641 133.426 25.3973 134.076 24.2518C134.726 23.0754 135.051 21.6514 135.051 19.9796C135.051 18.3388 134.726 16.9457 134.076 15.8003C133.426 14.6548 132.513 13.788 131.336 13.1998C130.191 12.6116 128.844 12.3175 127.296 12.3175H122.699V27.7346Z" fill="#FF4500"/>
<path d="M160.226 15.8467H200.835V23.741H160.226V15.8467ZM160.969 28.0133H203.343V36.2791H150.195V3.77303H202.739V12.0389H160.969V28.0133Z" fill="#FF4500"/>
<path d="M86.3442 44.4056H97.9535V76.9116H86.3442V44.4056ZM82.0375 76.9116H71.107V44.4056H82.0375V76.9116ZM87.0698 64.9308H81.2945V55.922H87.0698V64.9308Z" fill="#FF4500"/>
<path d="M112.337 56.4792H120.841V64.3736H112.337V56.4792ZM113.08 68.6458H123.349V76.9116H102.307V44.4056H122.745V52.6714H113.08V68.6458Z" fill="#FF4500"/>
<path d="M127.311 76.9116V44.4056H138.27V68.4136H146.567V76.9116H127.311Z" fill="#FF4500"/>
<path d="M167.455 76.9116L181.664 44.4056H190.261L204.471 76.9116H193.14L182.645 49.6065H186.918L176.423 76.9116H167.455ZM173.73 71.2463L176.516 63.3519H191.469L194.255 71.2463H173.73Z" fill="#FF4500"/>
<path d="M150.12 76.9116V44.4055H161.079V68.4136H167.2L163.572 76.9116H150.12Z" fill="#FF4500"/>
<path d="M83.728 91.84H89.104V93.92H83.728V91.84ZM83.92 98H81.328V86.8H89.792V88.88H83.92V98ZM93.9308 91.312H99.3228V93.328H93.9308V91.312ZM94.1228 95.92H100.219V98H91.5468V86.8H100.011V88.88H94.1228V95.92ZM105.961 98.192C105.065 98.192 104.206 98.0747 103.385 97.84C102.564 97.5947 101.902 97.28 101.401 96.896L102.281 94.944C102.761 95.2853 103.326 95.568 103.977 95.792C104.638 96.0053 105.305 96.112 105.977 96.112C106.489 96.112 106.9 96.064 107.209 95.968C107.529 95.8613 107.764 95.7173 107.913 95.536C108.062 95.3547 108.137 95.1467 108.137 94.912C108.137 94.6133 108.02 94.3787 107.785 94.208C107.55 94.0267 107.241 93.8827 106.857 93.776C106.473 93.6587 106.046 93.552 105.577 93.456C105.118 93.3493 104.654 93.2213 104.185 93.072C103.726 92.9227 103.305 92.7307 102.921 92.496C102.537 92.2613 102.222 91.952 101.977 91.568C101.742 91.184 101.625 90.6933 101.625 90.096C101.625 89.456 101.796 88.8747 102.137 88.352C102.489 87.8187 103.012 87.3973 103.705 87.088C104.409 86.768 105.289 86.608 106.345 86.608C107.049 86.608 107.742 86.6933 108.425 86.864C109.108 87.024 109.71 87.2693 110.233 87.6L109.433 89.568C108.91 89.2693 108.388 89.0507 107.865 88.912C107.342 88.7627 106.83 88.688 106.329 88.688C105.828 88.688 105.417 88.7467 105.097 88.864C104.777 88.9813 104.548 89.136 104.409 89.328C104.27 89.5093 104.201 89.7227 104.201 89.968C104.201 90.256 104.318 90.4907 104.553 90.672C104.788 90.8427 105.097 90.9813 105.481 91.088C105.865 91.1947 106.286 91.3013 106.745 91.408C107.214 91.5147 107.678 91.6373 108.137 91.776C108.606 91.9147 109.033 92.1013 109.417 92.336C109.801 92.5707 110.11 92.88 110.345 93.264C110.59 93.648 110.713 94.1333 110.713 94.72C110.713 95.3493 110.537 95.9253 110.185 96.448C109.833 96.9707 109.305 97.392 108.601 97.712C107.908 98.032 107.028 98.192 105.961 98.192ZM114.648 98V88.912H111.064V86.8H120.824V88.912H117.24V98H114.648ZM122.219 98V86.8H124.811V98H122.219ZM130.782 98L125.95 86.8H128.75L132.974 96.72H131.326L135.614 86.8H138.19L133.342 98H130.782ZM137.278 98L142.27 86.8H144.83L149.838 98H147.118L143.022 88.112H144.046L139.934 98H137.278ZM139.774 95.6L140.462 93.632H146.222L146.926 95.6H139.774ZM151 98V86.8H153.592V95.888H159.208V98H151Z" fill="#F5F5F5"/>
</svg>
