<svg width="315" height="305" viewBox="0 0 315 305" fill="none" xmlns="http://www.w3.org/2000/svg">
<rect width="315" height="34" fill="#D9D9D9"/>
<path d="M0 16H315V213C315 263.81 273.81 305 223 305H92C41.1898 305 0 263.81 0 213V16Z" fill="#4682B4"/>
<path d="M33 3H281V196C281 236.317 248.317 269 208 269H106C65.6832 269 33 236.317 33 196V3Z" fill="#D9D9D9"/>
<path d="M59 16H261V187C261 214.614 238.614 237 211 237H108C80.9381 237 59 215.062 59 188V16Z" fill="#FF4500"/>
<path fill-rule="evenodd" clip-rule="evenodd" d="M314 17H1V213C1 263.258 41.7421 304 92 304H223C273.258 304 314 263.258 314 213V17ZM1 16H0V17V213C0 263.81 41.1898 305 92 305H223C273.81 305 315 263.81 315 213V17V16H314H1ZM281 17H35V198C35 237.212 66.7878 269 106 269H210C249.212 269 281 237.212 281 198V17ZM35 16H34V17V198C34 237.764 66.2355 270 106 270H210C249.764 270 282 237.765 282 198V17V16H281H35Z" fill="#F5F5F5"/>
<path d="M91 16H228V173C228 191.778 212.778 207 194 207H126C106.67 207 91 191.33 91 172V16Z" fill="#D9D9D9"/>
<path fill-rule="evenodd" clip-rule="evenodd" d="M260 17H60V188C60 214.51 81.4903 236 108 236H212C238.51 236 260 214.51 260 188V17ZM60 16H59V17V188C59 215.062 80.9381 237 108 237H212C239.062 237 261 215.062 261 188V17V16H260H60ZM228 17H91V171C91 190.33 106.67 206 126 206H193C212.33 206 228 190.33 228 171V17ZM91 16H90V17V171C90 190.882 106.118 207 126 207H193C212.882 207 229 190.882 229 171V17V16H228H91Z" fill="#F5F5F5"/>
<rect x="95.5" y="90.5" width="129" height="90" fill="#FFD700" stroke="#F5F5F5"/>
<path d="M98.5 87.5V43.8551L119.585 36.5H200.917L222.5 43.8578V87.5H98.5Z" fill="#333333" stroke="#F5F5F5"/>
<rect x="120.5" y="4.5" width="81" height="29" fill="#333333" fill-opacity="0.7" stroke="#F5F5F5"/>
<rect x="150.5" y="90.5" width="22" height="18" fill="#4682B4" stroke="#F5F5F5"/>
<path d="M1 45H34" stroke="#F5F5F5"/>
<path d="M1 72H34" stroke="#F5F5F5"/>
<path d="M1 99H34" stroke="#F5F5F5"/>
<path d="M1 126H34" stroke="#F5F5F5"/>
<path d="M1 153H34" stroke="#F5F5F5"/>
<path d="M1 180H34" stroke="#F5F5F5"/>
<path d="M1 207L35 206" stroke="#F5F5F5"/>
<path d="M5.45457 242L40.4546 227" stroke="#F5F5F5"/>
<path d="M21.5001 270.5L53.0001 246" stroke="#F5F5F5"/>
<path d="M50 294L73.4428 261" stroke="#F5F5F5"/>
<path d="M100 304.5L100 270" stroke="#F5F5F5"/>
<path d="M140.26 304.5L140.26 270" stroke="#F5F5F5"/>
<path d="M314.52 45H281.52" stroke="#F5F5F5"/>
<path d="M314.52 72H281.52" stroke="#F5F5F5"/>
<path d="M314.52 99H281.52" stroke="#F5F5F5"/>
<path d="M314.52 126H281.52" stroke="#F5F5F5"/>
<path d="M314.52 153H281.52" stroke="#F5F5F5"/>
<path d="M314.52 180H281.52" stroke="#F5F5F5"/>
<path d="M314.52 207L280.52 206" stroke="#F5F5F5"/>
<path d="M310.066 242L275.066 227" stroke="#F5F5F5"/>
<path d="M294.02 270.5L262.52 246" stroke="#F5F5F5"/>
<path d="M265.52 294L242.078 261" stroke="#F5F5F5"/>
<path d="M215.52 304.5L215.52 269.5" stroke="#F5F5F5"/>
<path d="M175.26 304.5L175.26 270" stroke="#F5F5F5"/>
<path d="M60 16H81.0513" stroke="#F5F5F5"/>
<path d="M60 39H90" stroke="#F5F5F5"/>
<path d="M60 62H90" stroke="#F5F5F5"/>
<path d="M60 85H90" stroke="#F5F5F5"/>
<path d="M60 108H90" stroke="#F5F5F5"/>
<path d="M60 131H90" stroke="#F5F5F5"/>
<path d="M60 153.653L91 152.803" stroke="#F5F5F5"/>
<path d="M59.2979 184.597L90.0874 168.977" stroke="#F5F5F5"/>
<path d="M68 215.5L94 186" stroke="#F5F5F5"/>
<path d="M93.0001 234L107 201" stroke="#F5F5F5"/>
<path d="M123.154 236.5L123.154 207" stroke="#F5F5F5"/>
<path d="M148.837 236.5L148.837 207" stroke="#F5F5F5"/>
<path d="M261 16H239.949" stroke="#F5F5F5"/>
<path d="M261 39H229" stroke="#F5F5F5"/>
<path d="M261 62H229" stroke="#F5F5F5"/>
<path d="M261 85H229" stroke="#F5F5F5"/>
<path d="M261 108H229" stroke="#F5F5F5"/>
<path d="M261 131H229" stroke="#F5F5F5"/>
<path d="M261 153.653L228 152.803" stroke="#F5F5F5"/>
<path d="M260.5 181L228.5 171" stroke="#F5F5F5"/>
<path d="M253.5 213.5L225.5 185.5" stroke="#F5F5F5"/>
<path d="M229.5 232.5L214.788 199.538" stroke="#F5F5F5"/>
<path d="M197.846 236.5L197.846 206.5" stroke="#F5F5F5"/>
<path d="M172.164 236.5L172.164 206.5" stroke="#F5F5F5"/>
<rect x="125.5" y="206.5" width="20" height="12" fill="#D9D9D9" stroke="#F5F5F5"/>
<rect x="90.5" y="140.5" width="20" height="12" transform="rotate(90 90.5 140.5)" fill="#D9D9D9" stroke="#F5F5F5"/>
<rect x="90.5" y="40.5" width="20" height="12" transform="rotate(90 90.5 40.5)" fill="#D9D9D9" stroke="#F5F5F5"/>
<rect x="240.5" y="140.5" width="20" height="12" transform="rotate(90 240.5 140.5)" fill="#D9D9D9" stroke="#F5F5F5"/>
<rect x="240.5" y="40.5" width="20" height="12" transform="rotate(90 240.5 40.5)" fill="#D9D9D9" stroke="#F5F5F5"/>
<rect x="175.5" y="206.5" width="20" height="12" fill="#D9D9D9" stroke="#F5F5F5"/>
<circle cx="75.5" cy="103.5" r="11.5" fill="#003F86"/>
<path d="M75.5625 108H76.9375C76.7917 108.729 76.3958 109.354 75.75 109.875C75.1042 110.396 74.4062 110.656 73.6562 110.656C72.7396 110.656 71.9583 110.333 71.3125 109.688C70.6667 109.042 70.3438 108.26 70.3438 107.344C70.3438 106.594 70.6042 105.896 71.125 105.25C71.6458 104.604 72.2708 104.208 73 104.062V105.438C72.6042 105.583 72.2812 105.833 72.0312 106.188C71.7812 106.521 71.6562 106.906 71.6562 107.344C71.6562 107.885 71.8542 108.354 72.25 108.75C72.6458 109.146 73.1146 109.344 73.6562 109.344C74.0938 109.344 74.4792 109.219 74.8125 108.969C75.1667 108.719 75.4167 108.396 75.5625 108ZM73.6562 102.062C73.6562 101.562 73.875 101.167 74.3125 100.875C74.75 100.583 75.1979 100.573 75.6562 100.844H75.6875V100.875C75.8333 100.938 75.9688 101.031 76.0938 101.156L76.9688 102.125C77.7188 102.938 78.6146 103.344 79.6562 103.344V104.656C78.4896 104.656 77.3854 104.229 76.3438 103.375V105.656H78.3438C78.6979 105.656 79 105.792 79.25 106.062C79.5208 106.333 79.6562 106.646 79.6562 107V110.656H78.3438V107.344H75C74.6458 107.344 74.3333 107.208 74.0625 106.938C73.7917 106.667 73.6562 106.354 73.6562 106V102.062ZM74.0312 99.625C73.7812 99.3542 73.6562 99.0312 73.6562 98.6562C73.6562 98.2812 73.7812 97.9688 74.0312 97.7188C74.3021 97.4688 74.625 97.3438 75 97.3438C75.375 97.3438 75.6875 97.4688 75.9375 97.7188C76.2083 97.9688 76.3438 98.2812 76.3438 98.6562C76.3438 99.0312 76.2083 99.3542 75.9375 99.625C75.6875 99.875 75.375 100 75 100C74.625 100 74.3021 99.875 74.0312 99.625Z" fill="#F5F5F5"/>
<circle cx="245.5" cy="103.5" r="11.5" fill="#003F86"/>
<path d="M245.562 108H246.938C246.792 108.729 246.396 109.354 245.75 109.875C245.104 110.396 244.406 110.656 243.656 110.656C242.74 110.656 241.958 110.333 241.312 109.688C240.667 109.042 240.344 108.26 240.344 107.344C240.344 106.594 240.604 105.896 241.125 105.25C241.646 104.604 242.271 104.208 243 104.062V105.438C242.604 105.583 242.281 105.833 242.031 106.188C241.781 106.521 241.656 106.906 241.656 107.344C241.656 107.885 241.854 108.354 242.25 108.75C242.646 109.146 243.115 109.344 243.656 109.344C244.094 109.344 244.479 109.219 244.812 108.969C245.167 108.719 245.417 108.396 245.562 108ZM243.656 102.062C243.656 101.562 243.875 101.167 244.312 100.875C244.75 100.583 245.198 100.573 245.656 100.844H245.688V100.875C245.833 100.938 245.969 101.031 246.094 101.156L246.969 102.125C247.719 102.938 248.615 103.344 249.656 103.344V104.656C248.49 104.656 247.385 104.229 246.344 103.375V105.656H248.344C248.698 105.656 249 105.792 249.25 106.062C249.521 106.333 249.656 106.646 249.656 107V110.656H248.344V107.344H245C244.646 107.344 244.333 107.208 244.062 106.938C243.792 106.667 243.656 106.354 243.656 106V102.062ZM244.031 99.625C243.781 99.3542 243.656 99.0312 243.656 98.6562C243.656 98.2812 243.781 97.9688 244.031 97.7188C244.302 97.4688 244.625 97.3438 245 97.3438C245.375 97.3438 245.688 97.4688 245.938 97.7188C246.208 97.9688 246.344 98.2812 246.344 98.6562C246.344 99.0312 246.208 99.3542 245.938 99.625C245.688 99.875 245.375 100 245 100C244.625 100 244.302 99.875 244.031 99.625Z" fill="#F5F5F5"/>
<circle cx="206" cy="88" r="8" fill="#003F86"/>
<circle cx="113" cy="88" r="8" fill="#003F86"/>
<path d="M206.422 91H207.453C207.344 91.5469 207.047 92.0156 206.562 92.4062C206.078 92.7969 205.555 92.9922 204.992 92.9922C204.305 92.9922 203.719 92.75 203.234 92.2656C202.75 91.7812 202.508 91.1953 202.508 90.5078C202.508 89.9453 202.703 89.4219 203.094 88.9375C203.484 88.4531 203.953 88.1562 204.5 88.0469V89.0781C204.203 89.1875 203.961 89.375 203.773 89.6406C203.586 89.8906 203.492 90.1797 203.492 90.5078C203.492 90.9141 203.641 91.2656 203.938 91.5625C204.234 91.8594 204.586 92.0078 204.992 92.0078C205.32 92.0078 205.609 91.9141 205.859 91.7266C206.125 91.5391 206.312 91.2969 206.422 91ZM204.992 86.5469C204.992 86.1719 205.156 85.875 205.484 85.6562C205.812 85.4375 206.148 85.4297 206.492 85.6328H206.516V85.6562C206.625 85.7031 206.727 85.7734 206.82 85.8672L207.477 86.5938C208.039 87.2031 208.711 87.5078 209.492 87.5078V88.4922C208.617 88.4922 207.789 88.1719 207.008 87.5312V89.2422H208.508C208.773 89.2422 209 89.3438 209.188 89.5469C209.391 89.75 209.492 89.9844 209.492 90.25V92.9922H208.508V90.5078H206C205.734 90.5078 205.5 90.4062 205.297 90.2031C205.094 90 204.992 89.7656 204.992 89.5V86.5469ZM205.273 84.7188C205.086 84.5156 204.992 84.2734 204.992 83.9922C204.992 83.7109 205.086 83.4766 205.273 83.2891C205.477 83.1016 205.719 83.0078 206 83.0078C206.281 83.0078 206.516 83.1016 206.703 83.2891C206.906 83.4766 207.008 83.7109 207.008 83.9922C207.008 84.2734 206.906 84.5156 206.703 84.7188C206.516 84.9062 206.281 85 206 85C205.719 85 205.477 84.9062 205.273 84.7188Z" fill="#F5F5F5"/>
<path d="M113.422 91H114.453C114.344 91.5469 114.047 92.0156 113.562 92.4062C113.078 92.7969 112.555 92.9922 111.992 92.9922C111.305 92.9922 110.719 92.75 110.234 92.2656C109.75 91.7812 109.508 91.1953 109.508 90.5078C109.508 89.9453 109.703 89.4219 110.094 88.9375C110.484 88.4531 110.953 88.1562 111.5 88.0469V89.0781C111.203 89.1875 110.961 89.375 110.773 89.6406C110.586 89.8906 110.492 90.1797 110.492 90.5078C110.492 90.9141 110.641 91.2656 110.938 91.5625C111.234 91.8594 111.586 92.0078 111.992 92.0078C112.32 92.0078 112.609 91.9141 112.859 91.7266C113.125 91.5391 113.312 91.2969 113.422 91ZM111.992 86.5469C111.992 86.1719 112.156 85.875 112.484 85.6562C112.812 85.4375 113.148 85.4297 113.492 85.6328H113.516V85.6562C113.625 85.7031 113.727 85.7734 113.82 85.8672L114.477 86.5938C115.039 87.2031 115.711 87.5078 116.492 87.5078V88.4922C115.617 88.4922 114.789 88.1719 114.008 87.5312V89.2422H115.508C115.773 89.2422 116 89.3438 116.188 89.5469C116.391 89.75 116.492 89.9844 116.492 90.25V92.9922H115.508V90.5078H113C112.734 90.5078 112.5 90.4062 112.297 90.2031C112.094 90 111.992 89.7656 111.992 89.5V86.5469ZM112.273 84.7188C112.086 84.5156 111.992 84.2734 111.992 83.9922C111.992 83.7109 112.086 83.4766 112.273 83.2891C112.477 83.1016 112.719 83.0078 113 83.0078C113.281 83.0078 113.516 83.1016 113.703 83.2891C113.906 83.4766 114.008 83.7109 114.008 83.9922C114.008 84.2734 113.906 84.5156 113.703 84.7188C113.516 84.9062 113.281 85 113 85C112.719 85 112.477 84.9062 112.273 84.7188Z" fill="#F5F5F5"/>
<path d="M144.57 140V133H147.94C148.593 133 149.157 133.107 149.63 133.32C150.11 133.533 150.48 133.84 150.74 134.24C151 134.633 151.13 135.1 151.13 135.64C151.13 136.18 151 136.647 150.74 137.04C150.48 137.433 150.11 137.74 149.63 137.96C149.157 138.173 148.593 138.28 147.94 138.28H145.88L146.93 137.27V140H144.57ZM146.93 137.53L145.88 136.46H147.79C148.117 136.46 148.357 136.387 148.51 136.24C148.67 136.093 148.75 135.893 148.75 135.64C148.75 135.387 148.67 135.187 148.51 135.04C148.357 134.893 148.117 134.82 147.79 134.82H145.88L146.93 133.75V137.53ZM151.904 140V133H154.264V140H151.904ZM158.01 140.16C157.423 140.16 156.857 140.093 156.31 139.96C155.763 139.827 155.313 139.653 154.96 139.44L155.72 137.72C156.053 137.913 156.423 138.07 156.83 138.19C157.243 138.303 157.643 138.36 158.03 138.36C158.257 138.36 158.433 138.347 158.56 138.32C158.693 138.287 158.79 138.243 158.85 138.19C158.91 138.13 158.94 138.06 158.94 137.98C158.94 137.853 158.87 137.753 158.73 137.68C158.59 137.607 158.403 137.547 158.17 137.5C157.943 137.447 157.693 137.393 157.42 137.34C157.147 137.28 156.87 137.203 156.59 137.11C156.317 137.017 156.063 136.893 155.83 136.74C155.603 136.587 155.42 136.387 155.28 136.14C155.14 135.887 155.07 135.573 155.07 135.2C155.07 134.767 155.19 134.373 155.43 134.02C155.677 133.66 156.04 133.373 156.52 133.16C157.007 132.947 157.61 132.84 158.33 132.84C158.803 132.84 159.27 132.89 159.73 132.99C160.19 133.09 160.603 133.243 160.97 133.45L160.26 135.16C159.913 134.987 159.577 134.857 159.25 134.77C158.93 134.683 158.617 134.64 158.31 134.64C158.083 134.64 157.903 134.66 157.77 134.7C157.637 134.74 157.54 134.793 157.48 134.86C157.427 134.927 157.4 135 157.4 135.08C157.4 135.2 157.47 135.297 157.61 135.37C157.75 135.437 157.933 135.493 158.16 135.54C158.393 135.587 158.647 135.637 158.92 135.69C159.2 135.743 159.477 135.817 159.75 135.91C160.023 136.003 160.273 136.127 160.5 136.28C160.733 136.433 160.92 136.633 161.06 136.88C161.2 137.127 161.27 137.433 161.27 137.8C161.27 138.227 161.147 138.62 160.9 138.98C160.66 139.333 160.3 139.62 159.82 139.84C159.34 140.053 158.737 140.16 158.01 140.16ZM163.395 140V134.83H161.345V133H167.805V134.83H165.755V140H163.395ZM167.306 140L170.366 133H172.686L175.746 140H173.306L171.046 134.12H171.966L169.706 140H167.306ZM169.126 138.78L169.726 137.08H172.946L173.546 138.78H169.126Z" fill="#333333"/>
<path d="M156.256 97.2H156.904V100H156.256V97.2ZM154.984 100H154.336V97.2H154.984V100ZM156.304 98.852H154.936V98.304H156.304V98.852ZM158.926 100.048C158.705 100.048 158.5 100.012 158.31 99.94C158.124 99.868 157.961 99.7667 157.822 99.636C157.686 99.5053 157.58 99.352 157.502 99.176C157.428 99 157.39 98.808 157.39 98.6C157.39 98.392 157.428 98.2 157.502 98.024C157.58 97.848 157.688 97.6947 157.826 97.564C157.965 97.4333 158.128 97.332 158.314 97.26C158.501 97.188 158.704 97.152 158.922 97.152C159.144 97.152 159.346 97.188 159.53 97.26C159.717 97.332 159.878 97.4333 160.014 97.564C160.153 97.6947 160.261 97.848 160.338 98.024C160.416 98.1973 160.454 98.3893 160.454 98.6C160.454 98.808 160.416 99.0013 160.338 99.18C160.261 99.356 160.153 99.5093 160.014 99.64C159.878 99.768 159.717 99.868 159.53 99.94C159.346 100.012 159.145 100.048 158.926 100.048ZM158.922 99.496C159.048 99.496 159.162 99.4747 159.266 99.432C159.373 99.3893 159.466 99.328 159.546 99.248C159.626 99.168 159.688 99.0733 159.73 98.964C159.776 98.8547 159.798 98.7333 159.798 98.6C159.798 98.4667 159.776 98.3453 159.73 98.236C159.688 98.1267 159.626 98.032 159.546 97.952C159.469 97.872 159.377 97.8107 159.27 97.768C159.164 97.7253 159.048 97.704 158.922 97.704C158.797 97.704 158.681 97.7253 158.574 97.768C158.47 97.8107 158.378 97.872 158.298 97.952C158.218 98.032 158.156 98.1267 158.11 98.236C158.068 98.3453 158.046 98.4667 158.046 98.6C158.046 98.7307 158.068 98.852 158.11 98.964C158.156 99.0733 158.217 99.168 158.294 99.248C158.374 99.328 158.468 99.3893 158.574 99.432C158.681 99.4747 158.797 99.496 158.922 99.496ZM162.185 100.048C161.788 100.048 161.477 99.9373 161.253 99.716C161.029 99.4947 160.917 99.1787 160.917 98.768V97.2H161.565V98.744C161.565 99.0107 161.62 99.2027 161.729 99.32C161.839 99.4373 161.992 99.496 162.189 99.496C162.387 99.496 162.54 99.4373 162.649 99.32C162.759 99.2027 162.813 99.0107 162.813 98.744V97.2H163.453V98.768C163.453 99.1787 163.341 99.4947 163.117 99.716C162.893 99.9373 162.583 100.048 162.185 100.048ZM165.014 100.048C164.79 100.048 164.575 100.019 164.37 99.96C164.164 99.8987 163.999 99.82 163.874 99.724L164.094 99.236C164.214 99.3213 164.355 99.392 164.518 99.448C164.683 99.5013 164.85 99.528 165.018 99.528C165.146 99.528 165.248 99.516 165.326 99.492C165.406 99.4653 165.464 99.4293 165.502 99.384C165.539 99.3387 165.558 99.2867 165.558 99.228C165.558 99.1533 165.528 99.0947 165.47 99.052C165.411 99.0067 165.334 98.9707 165.238 98.944C165.142 98.9147 165.035 98.888 164.918 98.864C164.803 98.8373 164.687 98.8053 164.57 98.768C164.455 98.7307 164.35 98.6827 164.254 98.624C164.158 98.5653 164.079 98.488 164.018 98.392C163.959 98.296 163.93 98.1733 163.93 98.024C163.93 97.864 163.972 97.7187 164.058 97.588C164.146 97.4547 164.276 97.3493 164.45 97.272C164.626 97.192 164.846 97.152 165.11 97.152C165.286 97.152 165.459 97.1733 165.63 97.216C165.8 97.256 165.951 97.3173 166.082 97.4L165.882 97.892C165.751 97.8173 165.62 97.7627 165.49 97.728C165.359 97.6907 165.231 97.672 165.106 97.672C164.98 97.672 164.878 97.6867 164.798 97.716C164.718 97.7453 164.66 97.784 164.626 97.832C164.591 97.8773 164.574 97.9307 164.574 97.992C164.574 98.064 164.603 98.1227 164.662 98.168C164.72 98.2107 164.798 98.2453 164.894 98.272C164.99 98.2987 165.095 98.3253 165.21 98.352C165.327 98.3787 165.443 98.4093 165.558 98.444C165.675 98.4787 165.782 98.5253 165.878 98.584C165.974 98.6427 166.051 98.72 166.11 98.816C166.171 98.912 166.202 99.0333 166.202 99.18C166.202 99.3373 166.158 99.4813 166.07 99.612C165.982 99.7427 165.85 99.848 165.674 99.928C165.5 100.008 165.28 100.048 165.014 100.048ZM167.241 98.328H168.589V98.832H167.241V98.328ZM167.289 99.48H168.812V100H166.645V97.2H168.761V97.72H167.289V99.48ZM157.838 103V100.2H158.374L159.566 102.176H159.282L160.454 100.2H160.986L160.994 103H160.386L160.382 101.132H160.494L159.558 102.704H159.266L158.31 101.132H158.446V103H157.838ZM161.658 103V100.2H162.306V103H161.658ZM162.651 103L163.855 101.34V101.812L162.703 100.2H163.439L164.235 101.324L163.927 101.328L164.711 100.2H165.415L164.271 101.784V101.32L165.483 103H164.735L163.911 101.812H164.207L163.395 103H162.651Z" fill="#F5F5F5"/>
<path d="M145.794 61V54H149.164C149.817 54 150.38 54.1067 150.854 54.32C151.334 54.5333 151.704 54.84 151.964 55.24C152.224 55.6333 152.354 56.1 152.354 56.64C152.354 57.18 152.224 57.6467 151.964 58.04C151.704 58.4333 151.334 58.74 150.854 58.96C150.38 59.1733 149.817 59.28 149.164 59.28H147.104L148.154 58.27V61H145.794ZM148.154 58.53L147.104 57.46H149.014C149.34 57.46 149.58 57.3867 149.734 57.24C149.894 57.0933 149.974 56.8933 149.974 56.64C149.974 56.3867 149.894 56.1867 149.734 56.04C149.58 55.8933 149.34 55.82 149.014 55.82H147.104L148.154 54.75V58.53ZM153.128 61V54H155.488V61H153.128ZM159.234 61.16C158.647 61.16 158.08 61.0933 157.534 60.96C156.987 60.8267 156.537 60.6533 156.184 60.44L156.944 58.72C157.277 58.9133 157.647 59.07 158.054 59.19C158.467 59.3033 158.867 59.36 159.254 59.36C159.48 59.36 159.657 59.3467 159.784 59.32C159.917 59.2867 160.014 59.2433 160.074 59.19C160.134 59.13 160.164 59.06 160.164 58.98C160.164 58.8533 160.094 58.7533 159.954 58.68C159.814 58.6067 159.627 58.5467 159.394 58.5C159.167 58.4467 158.917 58.3933 158.644 58.34C158.37 58.28 158.094 58.2033 157.814 58.11C157.54 58.0167 157.287 57.8933 157.054 57.74C156.827 57.5867 156.644 57.3867 156.504 57.14C156.364 56.8867 156.294 56.5733 156.294 56.2C156.294 55.7667 156.414 55.3733 156.654 55.02C156.9 54.66 157.264 54.3733 157.744 54.16C158.23 53.9467 158.834 53.84 159.554 53.84C160.027 53.84 160.494 53.89 160.954 53.99C161.414 54.09 161.827 54.2433 162.194 54.45L161.484 56.16C161.137 55.9867 160.8 55.8567 160.474 55.77C160.154 55.6833 159.84 55.64 159.534 55.64C159.307 55.64 159.127 55.66 158.994 55.7C158.86 55.74 158.764 55.7933 158.704 55.86C158.65 55.9267 158.624 56 158.624 56.08C158.624 56.2 158.694 56.2967 158.834 56.37C158.974 56.4367 159.157 56.4933 159.384 56.54C159.617 56.5867 159.87 56.6367 160.144 56.69C160.424 56.7433 160.7 56.8167 160.974 56.91C161.247 57.0033 161.497 57.1267 161.724 57.28C161.957 57.4333 162.144 57.6333 162.284 57.88C162.424 58.1267 162.494 58.4333 162.494 58.8C162.494 59.2267 162.37 59.62 162.124 59.98C161.884 60.3333 161.524 60.62 161.044 60.84C160.564 61.0533 159.96 61.16 159.234 61.16ZM164.618 61V55.83H162.568V54H169.028V55.83H166.978V61H164.618ZM168.53 61L171.59 54H173.91L176.97 61H174.53L172.27 55.12H173.19L170.93 61H168.53ZM170.35 59.78L170.95 58.08H174.17L174.77 59.78H170.35ZM135.603 70V63H138.973C139.627 63 140.19 63.1067 140.663 63.32C141.143 63.5333 141.513 63.84 141.773 64.24C142.033 64.6333 142.163 65.1 142.163 65.64C142.163 66.18 142.033 66.6467 141.773 67.04C141.513 67.4333 141.143 67.74 140.663 67.96C140.19 68.1733 139.627 68.28 138.973 68.28H136.913L137.963 67.27V70H135.603ZM137.963 67.53L136.913 66.46H138.823C139.15 66.46 139.39 66.3867 139.543 66.24C139.703 66.0933 139.783 65.8933 139.783 65.64C139.783 65.3867 139.703 65.1867 139.543 65.04C139.39 64.8933 139.15 64.82 138.823 64.82H136.913L137.963 63.75V67.53ZM142.937 70V63H146.307C146.961 63 147.524 63.1067 147.997 63.32C148.477 63.5333 148.847 63.84 149.107 64.24C149.367 64.6333 149.497 65.1 149.497 65.64C149.497 66.18 149.367 66.6467 149.107 67.04C148.847 67.4267 148.477 67.7233 147.997 67.93C147.524 68.1367 146.961 68.24 146.307 68.24H144.247L145.297 67.27V70H142.937ZM147.127 70L145.407 67.45H147.907L149.647 70H147.127ZM145.297 67.53L144.247 66.46H146.157C146.484 66.46 146.724 66.3867 146.877 66.24C147.037 66.0933 147.117 65.8933 147.117 65.64C147.117 65.3867 147.037 65.1867 146.877 65.04C146.724 64.8933 146.484 64.82 146.157 64.82H144.247L145.297 63.75V67.53ZM152.548 65.6H155.668V67.3H152.548V65.6ZM152.708 68.22H156.208V70H150.388V63H156.078V64.78H152.708V68.22ZM157.117 70V63H159.057L161.857 67.57H160.837L163.557 63H165.497L165.517 70H163.367L163.347 66.24H163.687L161.827 69.37H160.787L158.847 66.24H159.267V70H157.117ZM166.658 70V63H169.018V70H166.658ZM173.504 70.16C172.431 70.16 171.594 69.87 170.994 69.29C170.394 68.71 170.094 67.8967 170.094 66.85V63H172.454V66.78C172.454 67.3133 172.551 67.6933 172.744 67.92C172.937 68.14 173.197 68.25 173.524 68.25C173.857 68.25 174.117 68.14 174.304 67.92C174.497 67.6933 174.594 67.3133 174.594 66.78V63H176.914V66.85C176.914 67.8967 176.614 68.71 176.014 69.29C175.414 69.87 174.577 70.16 173.504 70.16ZM177.996 70V63H179.936L182.736 67.57H181.716L184.436 63H186.376L186.396 70H184.246L184.226 66.24H184.566L182.706 69.37H181.666L179.726 66.24H180.146V70H177.996Z" fill="#F5F5F5"/>
<path d="M143.628 23V16H146.998C147.651 16 148.214 16.1067 148.688 16.32C149.168 16.5333 149.538 16.84 149.798 17.24C150.058 17.6333 150.188 18.1 150.188 18.64C150.188 19.18 150.058 19.6467 149.798 20.04C149.538 20.4333 149.168 20.74 148.688 20.96C148.214 21.1733 147.651 21.28 146.998 21.28H144.938L145.988 20.27V23H143.628ZM145.988 20.53L144.938 19.46H146.848C147.174 19.46 147.414 19.3867 147.568 19.24C147.728 19.0933 147.808 18.8933 147.808 18.64C147.808 18.3867 147.728 18.1867 147.568 18.04C147.414 17.8933 147.174 17.82 146.848 17.82H144.938L145.988 16.75V20.53ZM149.85 23L152.91 16H155.23L158.29 23H155.85L153.59 17.12H154.51L152.25 23H149.85ZM151.67 21.78L152.27 20.08H155.49L156.09 21.78H151.67ZM158.667 23V16H161.027V21.17H164.187V23H158.667ZM168.361 23.16C167.801 23.16 167.281 23.0733 166.801 22.9C166.328 22.72 165.914 22.4667 165.561 22.14C165.214 21.8133 164.944 21.4267 164.751 20.98C164.558 20.5333 164.461 20.04 164.461 19.5C164.461 18.96 164.558 18.4667 164.751 18.02C164.944 17.5733 165.214 17.1867 165.561 16.86C165.914 16.5333 166.328 16.2833 166.801 16.11C167.281 15.93 167.801 15.84 168.361 15.84C169.048 15.84 169.654 15.96 170.181 16.2C170.714 16.44 171.154 16.7867 171.501 17.24L170.011 18.57C169.804 18.31 169.574 18.11 169.321 17.97C169.074 17.8233 168.794 17.75 168.481 17.75C168.234 17.75 168.011 17.79 167.811 17.87C167.611 17.95 167.438 18.0667 167.291 18.22C167.151 18.3733 167.041 18.56 166.961 18.78C166.881 18.9933 166.841 19.2333 166.841 19.5C166.841 19.7667 166.881 20.01 166.961 20.23C167.041 20.4433 167.151 20.6267 167.291 20.78C167.438 20.9333 167.611 21.05 167.811 21.13C168.011 21.21 168.234 21.25 168.481 21.25C168.794 21.25 169.074 21.18 169.321 21.04C169.574 20.8933 169.804 20.69 170.011 20.43L171.501 21.76C171.154 22.2067 170.714 22.5533 170.181 22.8C169.654 23.04 169.048 23.16 168.361 23.16ZM175.706 23.16C175.139 23.16 174.612 23.07 174.126 22.89C173.646 22.71 173.229 22.4567 172.876 22.13C172.522 21.7967 172.246 21.4067 172.046 20.96C171.852 20.5133 171.756 20.0267 171.756 19.5C171.756 18.9667 171.852 18.48 172.046 18.04C172.246 17.5933 172.522 17.2067 172.876 16.88C173.229 16.5467 173.646 16.29 174.126 16.11C174.612 15.93 175.139 15.84 175.706 15.84C176.279 15.84 176.806 15.93 177.286 16.11C177.766 16.29 178.182 16.5467 178.536 16.88C178.889 17.2067 179.162 17.5933 179.356 18.04C179.556 18.48 179.656 18.9667 179.656 19.5C179.656 20.0267 179.556 20.5133 179.356 20.96C179.162 21.4067 178.889 21.7967 178.536 22.13C178.182 22.4567 177.766 22.71 177.286 22.89C176.806 23.07 176.279 23.16 175.706 23.16ZM175.706 21.25C175.926 21.25 176.129 21.21 176.316 21.13C176.509 21.05 176.676 20.9367 176.816 20.79C176.962 20.6367 177.076 20.4533 177.156 20.24C177.236 20.02 177.276 19.7733 177.276 19.5C177.276 19.2267 177.236 18.9833 177.156 18.77C177.076 18.55 176.962 18.3667 176.816 18.22C176.676 18.0667 176.509 17.95 176.316 17.87C176.129 17.79 175.926 17.75 175.706 17.75C175.486 17.75 175.279 17.79 175.086 17.87C174.899 17.95 174.732 18.0667 174.586 18.22C174.446 18.3667 174.336 18.55 174.256 18.77C174.176 18.9833 174.136 19.2267 174.136 19.5C174.136 19.7733 174.176 20.02 174.256 20.24C174.336 20.4533 174.446 20.6367 174.586 20.79C174.732 20.9367 174.899 21.05 175.086 21.13C175.279 21.21 175.486 21.25 175.706 21.25Z" fill="#F5F5F5"/>
</svg>
