<svg width="107" height="35" viewBox="0 0 107 35" fill="none" xmlns="http://www.w3.org/2000/svg">
<path d="M94.9666 34.9992H92.0848V28.9924H92.4743C93.3829 28.9924 94.0709 28.7804 94.5383 28.3564C95.0056 27.9324 95.2392 27.3317 95.2392 26.5543V23.1976C95.2392 21.902 95.4469 20.9009 95.8623 20.1942C96.3037 19.4639 96.9657 18.9457 97.8484 18.6395C98.7311 18.3333 99.8734 18.133 101.275 18.0388V18.8868C99.8734 18.7926 98.7311 18.5924 97.8484 18.2861C96.9657 17.9799 96.3037 17.4735 95.8623 16.7668C95.4469 16.0365 95.2392 15.0236 95.2392 13.728V10.3713C95.2392 9.59396 95.0056 8.99328 94.5383 8.56927C94.0709 8.14526 93.3829 7.93325 92.4743 7.93325H92.0848V1.92645H94.9666C97.9782 1.92645 100.237 2.58602 101.743 3.90516C103.274 5.2243 104.04 7.07345 104.04 9.45262V13.9047C104.04 14.4229 104.196 14.8116 104.508 15.0707C104.819 15.3299 105.222 15.4594 105.715 15.4594H107V21.4662H105.715C105.222 21.4662 104.819 21.5958 104.508 21.8549C104.196 22.0905 104.04 22.4791 104.04 23.0209V27.473C104.04 29.8522 103.274 31.7013 101.743 33.0205C100.237 34.3396 97.9782 34.9992 94.9666 34.9992Z" fill="#FFD700"/>
<path d="M18.4818 34.9992C15.5415 35.006 12.4857 34.9992 9.64219 33.7022C7.76158 32.8444 6.92631 32.3126 5.255 30.7412C3.61582 29.1699 2.3302 27.326 1.39812 25.2095C0.466039 23.061 0 20.704 0 18.1385C0 15.5731 0.466039 13.2322 1.39812 11.1157C2.3302 8.96712 3.61582 7.10718 5.255 5.53585C6.92631 3.96452 8.88689 2.76197 11.1367 1.92821C13.4187 1.06237 15.8936 0.629456 18.5612 0.629456C21.6789 0.629456 22.915 0.676342 25.6152 1.27794C27.2962 1.65249 30.4788 2.89915 31.1273 3.2234C31.1273 3.2234 29.2204 5.30023 28.8576 7.1143C28.2091 10.3567 29.1818 13.2749 29.1818 13.2749C27.2364 11.0052 25.6152 10.2273 24.6424 9.70824C22.5608 8.59754 20.6504 8.51817 19.0433 8.51817C17.6613 8.51817 16.3917 8.74264 15.2347 9.19159C14.0776 9.64055 13.0812 10.2979 12.2456 11.1638C11.4421 11.9975 10.7993 13.0077 10.3171 14.1942C9.86718 15.3807 9.64219 16.6955 9.64219 18.1385C9.64219 19.5816 9.86718 20.8964 10.3171 22.0829C10.7993 23.2694 11.4421 24.2956 12.2456 25.1614C13.0812 25.9952 14.0776 26.6365 15.2347 27.0855C16.3917 27.5344 17.6613 27.7589 19.0433 27.7589C20.6504 27.7589 21.9866 27.6934 24.3182 26.5689C27.2364 25.1614 28.8576 22.6779 29.8303 20.4082V34.9992C29.8303 34.9992 22.6176 34.9895 18.4818 34.9992Z" fill="#F5F5F5"/>
<path d="M38.6756 17.1736C36.6394 17.1814 36.4068 16.9869 35.3969 16.6133C34.4008 16.2398 33.5362 15.7141 32.803 15.0362C32.0697 14.3445 31.4956 13.5352 31.0806 12.6083C30.6794 11.6814 30.4788 10.6715 30.4788 9.57858C30.4788 8.47183 30.6794 7.46192 31.0806 6.54885C31.4956 5.62195 32.0697 4.81956 32.803 4.14168C33.5362 3.44996 34.4008 2.91734 35.3969 2.54381C36.4068 2.17028 37.4997 1.98352 38.6756 1.98352C39.8654 1.98352 42.2553 2.17028 43.2514 2.54381C44.2474 2.91734 45.1121 3.44996 45.8453 4.14168C46.5785 4.81956 47.1457 5.62195 47.5469 6.54885C47.9619 7.46192 48.1695 8.47183 48.1695 9.57858C48.1695 10.6715 47.9619 11.6814 47.5469 12.6083C47.1457 13.5352 46.5785 14.3445 45.8453 15.0362C45.1121 15.7141 44.2474 16.2398 43.2514 16.6133C42.2553 16.9869 40.7119 17.1659 38.6756 17.1736ZM38.6756 13.2101C39.1322 13.2101 39.9464 13.2506 40.7119 13.0233C41.3642 12.8296 41.9855 12.5599 42.276 12.2555C42.5804 11.9373 42.8156 11.5569 42.9816 11.1142C43.1476 10.6577 43.2306 10.1458 43.2306 9.57858C43.2306 9.01137 43.1476 8.50641 42.9816 8.06371C42.8156 7.60718 42.5804 7.22674 42.276 6.92238C41.9855 6.60419 41.2648 6.15975 40.504 5.94706C39.8487 5.76384 39.4149 5.81736 38.7664 5.81736C38.3099 5.81736 37.7902 6.03007 37.389 6.19608C37.0017 6.36209 36.6558 6.60419 36.3515 6.92238C36.0609 7.22674 35.8327 7.60718 35.6667 8.06371C35.5007 8.50641 35.4177 9.01137 35.4177 9.57858C35.4177 10.1458 35.5007 10.6577 35.6667 11.1142C35.8327 11.5569 36.0609 11.9373 36.3515 12.2555C36.6558 12.5599 37.0017 12.7951 37.389 12.9611C37.7902 13.1271 38.2191 13.2101 38.6756 13.2101Z" fill="#F5F5F5"/>
<path d="M49.9333 16.8416V2.31555H57.0926C58.7112 2.31555 60.1362 2.61298 61.3674 3.20786C62.5987 3.7889 63.5602 4.61896 64.2519 5.69804C64.9436 6.77712 65.2895 8.06372 65.2895 9.55783C65.2895 11.0658 64.9436 12.3662 64.2519 13.4591C63.5602 14.5382 62.5987 15.3752 61.3674 15.97C60.1362 16.5511 58.7112 16.8416 57.0926 16.8416H49.9333ZM54.8307 13.0233H56.8851C57.5768 13.0233 58.1786 12.8919 58.6905 12.6291C59.2162 12.3662 59.6243 11.9788 59.9148 11.467C60.2053 10.9413 60.3506 10.3049 60.3506 9.55783C60.3506 8.8246 60.2053 8.20206 59.9148 7.69019C59.6243 7.17832 59.2162 6.79096 58.6905 6.5281C58.1786 6.26525 57.5768 6.13382 56.8851 6.13382H54.8307V13.0233Z" fill="#F5F5F5"/>
<path d="M71.6005 7.71094H89.7477V11.2387H71.6005V7.71094ZM71.9325 13.1478H90.8683V16.8416H67.1182V2.31555H90.5985V6.00932H71.9325V13.1478Z" fill="#F5F5F5"/>
<path d="M38.5848 20.4731H43.7727V34.9991H38.5848V20.4731ZM36.6603 34.9991H31.7758V20.4731H36.6603V34.9991ZM38.9091 29.6453H36.3283V25.6195H38.9091V29.6453Z" fill="#F5F5F5"/>
<path d="M50.2005 25.8685H54.0006V29.3962H50.2005V25.8685ZM50.5325 31.3054H55.1212V34.9991H45.7182V20.4731H54.8514V24.1669H50.5325V31.3054Z" fill="#F5F5F5"/>
<path d="M56.8917 34.9991V20.4731H61.7891V31.2016H65.497V34.9991H56.8917Z" fill="#F5F5F5"/>
<path d="M74.8309 34.9991L81.1808 20.4731H85.0225L91.3724 34.9991H86.3091L81.6192 22.7973H83.5284L78.8385 34.9991H74.8309ZM77.6349 32.4675L78.88 28.9397H85.562L86.8071 32.4675H77.6349Z" fill="#F5F5F5"/>
<path d="M67.0845 34.9991V20.4731H71.9818V31.2016H74.717L73.0958 34.9991H67.0845Z" fill="#F5F5F5"/>
</svg>
