<svg width="151" height="58" viewBox="0 0 151 58" fill="none" xmlns="http://www.w3.org/2000/svg">
<path d="M14.08 20.272H44.2281V31.664H14.08V20.272ZM15.104 46H0V1.19999H46.8521V12.592H15.104V46Z" fill="white"/>
<path d="M43.8506 46L63.4346 1.19999H78.2826L97.8666 46H82.2506L67.7866 8.368H73.6746L59.2106 46H43.8506ZM55.4986 38.192L59.3386 27.312H79.9466L83.7866 38.192H55.4986Z" fill="white"/>
<path d="M123.14 47.024C119.513 47.024 116.143 46.448 113.028 45.296C109.956 44.144 107.289 42.5227 105.028 40.432C102.767 38.2987 100.996 35.8027 99.7161 32.944C98.4787 30.0853 97.8601 26.9707 97.8601 23.6C97.8601 20.1867 98.4787 17.072 99.7161 14.256C100.996 11.3973 102.767 8.92266 105.028 6.83199C107.289 4.69866 109.956 3.05599 113.028 1.904C116.143 0.751995 119.513 0.175995 123.14 0.175995C126.809 0.175995 130.18 0.751995 133.252 1.904C136.324 3.05599 138.991 4.69866 141.252 6.83199C143.513 8.92266 145.263 11.3973 146.5 14.256C147.78 17.072 148.42 20.1867 148.42 23.6C148.42 26.9707 147.78 30.0853 146.5 32.944C145.263 35.8027 143.513 38.2987 141.252 40.432C138.991 42.5227 136.324 44.144 133.252 45.296C130.18 46.448 126.809 47.024 123.14 47.024ZM137.796 57.328C135.705 57.328 133.764 57.1147 131.972 56.688C130.18 56.304 128.431 55.6427 126.724 54.704C125.06 53.7653 123.311 52.464 121.476 50.8C119.641 49.1787 117.593 47.152 115.332 44.72L130.948 40.88C131.972 42.4587 132.847 43.6747 133.572 44.528C134.297 45.3813 135.001 45.9787 135.684 46.32C136.409 46.6613 137.22 46.832 138.116 46.832C140.335 46.832 142.404 45.872 144.324 43.952L150.852 51.632C147.652 55.4293 143.3 57.328 137.796 57.328ZM123.14 34.8C124.548 34.8 125.849 34.544 127.044 34.032C128.281 33.52 129.348 32.7947 130.244 31.856C131.183 30.8747 131.908 29.7013 132.42 28.336C132.932 26.928 133.188 25.3493 133.188 23.6C133.188 21.8507 132.932 20.2933 132.42 18.928C131.908 17.52 131.183 16.3467 130.244 15.408C129.348 14.4267 128.281 13.68 127.044 13.168C125.849 12.656 124.548 12.4 123.14 12.4C121.732 12.4 120.409 12.656 119.172 13.168C117.977 13.68 116.911 14.4267 115.972 15.408C115.076 16.3467 114.372 17.52 113.86 18.928C113.348 20.2933 113.092 21.8507 113.092 23.6C113.092 25.3493 113.348 26.928 113.86 28.336C114.372 29.7013 115.076 30.8747 115.972 31.856C116.911 32.7947 117.977 33.52 119.172 34.032C120.409 34.544 121.732 34.8 123.14 34.8Z" fill="white"/>
</svg>
