<svg width="221" height="151" viewBox="0 0 221 151" fill="none" xmlns="http://www.w3.org/2000/svg">
<path d="M3.392 45V0.200012H15.808L33.728 29.448H27.2L44.608 0.200012H57.024L57.152 45H43.392L43.264 20.936H45.44L33.536 40.968H26.88L14.464 20.936H17.152V45H3.392Z" fill="#FFD700"/>
<path d="M59.5905 45L79.1745 0.200012H94.0225L113.607 45H97.9905L83.5265 7.36802H89.4145L74.9505 45H59.5905ZM71.2385 37.192L75.0785 26.312H95.6865L99.5265 37.192H71.2385Z" fill="#FFD700"/>
<path d="M116.017 45V0.200012H137.585C141.766 0.200012 145.372 0.882679 148.401 2.24801C151.473 3.61335 153.841 5.57601 155.505 8.13601C157.169 10.6533 158.001 13.64 158.001 17.096C158.001 20.552 157.169 23.5387 155.505 26.056C153.841 28.5733 151.473 30.536 148.401 31.944C145.372 33.3093 141.766 33.992 137.585 33.992H124.401L131.121 27.528V45H116.017ZM131.121 29.192L124.401 22.344H136.625C138.716 22.344 140.252 21.8747 141.233 20.936C142.257 19.9973 142.769 18.7173 142.769 17.096C142.769 15.4747 142.257 14.1947 141.233 13.256C140.252 12.3173 138.716 11.848 136.625 11.848H124.401L131.121 5.00002V29.192Z" fill="#FFD700"/>
<path d="M155.84 45L175.424 0.200012H197.16L216.744 45H194.241L179.777 7.36802H185.665L171.201 45H155.84ZM167.488 37.192L171.329 26.312H191.937L195.777 37.192H167.488Z" fill="#FFD700"/>
<path d="M3.392 97V52.2H25.472C30.464 52.2 34.8587 53.1173 38.656 54.952C42.4533 56.744 45.4187 59.304 47.552 62.632C49.6853 65.96 50.752 69.928 50.752 74.536C50.752 79.1867 49.6853 83.1973 47.552 86.568C45.4187 89.896 42.4533 92.4773 38.656 94.312C34.8587 96.104 30.464 97 25.472 97H3.392ZM18.496 85.224H24.832C26.9653 85.224 28.8213 84.8187 30.4 84.008C32.0213 83.1973 33.28 82.0027 34.176 80.424C35.072 78.8027 35.52 76.84 35.52 74.536C35.52 72.2747 35.072 70.3547 34.176 68.776C33.28 67.1973 32.0213 66.0027 30.4 65.192C28.8213 64.3813 26.9653 63.976 24.832 63.976H18.496V85.224Z" fill="#FFD700"/>
<path d="M70.091 68.84H95.744V79.72H70.091V68.84ZM71.115 85.608H103.244V97H56.267V52.2H102.744V63.592H71.115V85.608Z" fill="#FFD700"/>
<path d="M135.221 98.024C131.466 98.024 127.84 97.5974 124.341 96.744C120.842 95.8907 117.962 94.7813 115.701 93.416L120.565 82.408C122.698 83.6453 125.066 84.648 127.669 85.416C130.314 86.1413 132.874 86.504 135.349 86.504C136.8 86.504 137.93 86.4187 138.741 86.248C139.594 86.0347 140.213 85.7573 140.597 85.416C140.981 85.032 141.173 84.584 141.173 84.072C141.173 83.2613 140.725 82.6213 139.829 82.152C138.933 81.6827 137.738 81.2987 136.245 81C134.794 80.6587 133.194 80.3173 131.445 79.976C129.696 79.592 127.925 79.1013 126.133 78.504C124.384 77.9067 122.762 77.1173 121.269 76.136C119.818 75.1547 118.645 73.8747 117.749 72.296C116.853 70.6747 116.405 68.6693 116.405 66.28C116.405 63.5067 117.173 60.9893 118.709 58.728C120.288 56.424 122.613 54.5893 125.685 53.224C128.8 51.8587 132.661 51.176 137.269 51.176C140.298 51.176 143.285 51.496 146.229 52.136C149.173 52.776 151.818 53.7573 154.165 55.08L149.621 66.024C147.402 64.9147 145.248 64.0827 143.157 63.528C141.109 62.9733 139.104 62.696 137.141 62.696C135.69 62.696 134.538 62.824 133.685 63.08C132.832 63.336 132.213 63.6773 131.829 64.104C131.488 64.5307 131.317 65 131.317 65.512C131.317 66.28 131.765 66.8987 132.661 67.368C133.557 67.7947 134.73 68.1573 136.181 68.456C137.674 68.7547 139.296 69.0747 141.045 69.416C142.837 69.7573 144.608 70.2267 146.357 70.824C148.106 71.4213 149.706 72.2107 151.157 73.192C152.65 74.1733 153.845 75.4533 154.741 77.032C155.637 78.6107 156.085 80.5733 156.085 82.92C156.085 85.6507 155.296 88.168 153.717 90.472C152.181 92.7334 149.877 94.568 146.805 95.976C143.733 97.3413 139.872 98.024 135.221 98.024Z" fill="#F5F5F5"/>
<path d="M174.404 68.84H207.744V79.72H174.404V68.84ZM175.428 85.608H217.244V97H160.579V52.2H216.744V63.592H175.428V85.608Z" fill="#F5F5F5"/>
<path d="M13.12 149V115.912H0V104.2H41.344V115.912H28.224V149H13.12Z" fill="#F5F5F5"/>
<path d="M68.13 150.024C64.5033 150.024 61.1327 149.448 58.018 148.296C54.946 147.144 52.2793 145.523 50.018 143.432C47.7567 141.299 45.986 138.803 44.706 135.944C43.4687 133.085 42.85 129.971 42.85 126.6C42.85 123.187 43.4687 120.072 44.706 117.256C45.986 114.397 47.7567 111.923 50.018 109.832C52.2793 107.699 54.946 106.056 58.018 104.904C61.1327 103.752 64.5033 103.176 68.13 103.176C71.7993 103.176 75.17 103.752 78.242 104.904C81.314 106.056 83.9807 107.699 86.242 109.832C88.5033 111.923 90.2527 114.397 91.49 117.256C92.77 120.072 93.41 123.187 93.41 126.6C93.41 129.971 92.77 133.085 91.49 135.944C90.2527 138.803 88.5033 141.299 86.242 143.432C83.9807 145.523 81.314 147.144 78.242 148.296C75.17 149.448 71.7993 150.024 68.13 150.024ZM68.13 137.8C69.538 137.8 70.8393 137.544 72.034 137.032C73.2713 136.52 74.338 135.795 75.234 134.856C76.1727 133.875 76.898 132.701 77.41 131.336C77.922 129.928 78.178 128.349 78.178 126.6C78.178 124.851 77.922 123.293 77.41 121.928C76.898 120.52 76.1727 119.347 75.234 118.408C74.338 117.427 73.2713 116.68 72.034 116.168C70.8393 115.656 69.538 115.4 68.13 115.4C66.722 115.4 65.3993 115.656 64.162 116.168C62.9673 116.68 61.9007 117.427 60.962 118.408C60.066 119.347 59.362 120.52 58.85 121.928C58.338 123.293 58.082 124.851 58.082 126.6C58.082 128.349 58.338 129.928 58.85 131.336C59.362 132.701 60.066 133.875 60.962 134.856C61.9007 135.795 62.9673 136.52 64.162 137.032C65.3993 137.544 66.722 137.8 68.13 137.8Z" fill="#F5F5F5"/>
<path d="M98.892 149V104.2H120.46C124.641 104.2 128.247 104.883 131.276 106.248C134.348 107.613 136.716 109.576 138.38 112.136C140.044 114.653 140.876 117.64 140.876 121.096C140.876 124.552 140.044 127.539 138.38 130.056C136.716 132.531 134.348 134.429 131.276 135.752C128.247 137.075 124.641 137.736 120.46 137.736H107.276L113.996 131.528V149H98.892ZM125.708 149L114.7 132.68H130.7L141.836 149H125.708ZM113.996 133.192L107.276 126.344H119.5C121.591 126.344 123.127 125.875 124.108 124.936C125.132 123.997 125.644 122.717 125.644 121.096C125.644 119.475 125.132 118.195 124.108 117.256C123.127 116.317 121.591 115.848 119.5 115.848H107.276L113.996 109V133.192Z" fill="#F5F5F5"/>
<path d="M160.404 120.84H169.244V131.72H160.404V120.84ZM161.428 137.608H176.244V149H146.579V104.2H176.244V115.592H161.428V137.608Z" fill="#F5F5F5"/>
<path d="M199.264 150.024C195.509 150.024 191.883 149.597 188.384 148.744C184.885 147.891 182.005 146.781 179.744 145.416L184.608 134.408C186.741 135.645 189.109 136.648 191.712 137.416C194.357 138.141 196.917 138.504 199.392 138.504C200.843 138.504 201.973 138.419 202.784 138.248C203.637 138.035 204.256 137.757 204.64 137.416C205.024 137.032 205.216 136.584 205.216 136.072C205.216 135.261 204.768 134.621 203.872 134.152C202.976 133.683 201.781 133.299 200.288 133C198.837 132.659 197.237 132.317 195.488 131.976C193.739 131.592 191.968 131.101 190.176 130.504C188.427 129.907 186.805 129.117 185.312 128.136C183.861 127.155 182.688 125.875 181.792 124.296C180.896 122.675 180.448 120.669 180.448 118.28C180.448 115.507 181.216 112.989 182.752 110.728C184.331 108.424 186.656 106.589 189.728 105.224C192.843 103.859 196.704 103.176 201.312 103.176C204.341 103.176 207.328 103.496 210.272 104.136C213.216 104.776 215.861 105.757 218.208 107.08L213.664 118.024C211.445 116.915 209.291 116.083 207.2 115.528C205.152 114.973 203.147 114.696 201.184 114.696C199.733 114.696 198.581 114.824 197.728 115.08C196.875 115.336 196.256 115.677 195.872 116.104C195.531 116.531 195.36 117 195.36 117.512C195.36 118.28 195.808 118.899 196.704 119.368C197.6 119.795 198.773 120.157 200.224 120.456C201.717 120.755 203.339 121.075 205.088 121.416C206.88 121.757 208.651 122.227 210.4 122.824C212.149 123.421 213.749 124.211 215.2 125.192C216.693 126.173 217.888 127.453 218.784 129.032C219.68 130.611 220.128 132.573 220.128 134.92C220.128 137.651 219.339 140.168 217.76 142.472C216.224 144.733 213.92 146.568 210.848 147.976C207.776 149.341 203.915 150.024 199.264 150.024Z" fill="#F5F5F5"/>
</svg>
