<svg width="176" height="102" viewBox="0 0 176 102" fill="none" xmlns="http://www.w3.org/2000/svg">
<path d="M0 46V1.19999H15.104V46H0Z" fill="white"/>
<path d="M22.375 46V1.19999H34.791L67.6121 28.464H61.8521V1.19999H76.5721V46H64.1561L31.335 18.736H37.095V46H22.375Z" fill="white"/>
<path d="M106.552 47.024C102.925 47.024 99.576 46.4693 96.504 45.36C93.4747 44.208 90.8294 42.5867 88.568 40.496C86.3494 38.4053 84.6214 35.9307 83.384 33.072C82.1467 30.2133 81.528 27.056 81.528 23.6C81.528 20.144 82.1467 16.9867 83.384 14.128C84.6214 11.2693 86.3707 8.79466 88.632 6.70399C90.8934 4.61333 93.5601 3.01333 96.632 1.904C99.7467 0.751995 103.16 0.175995 106.872 0.175995C111.309 0.175995 115.256 0.922661 118.712 2.41599C122.211 3.90933 125.091 6.04266 127.352 8.81599L117.688 17.328C116.28 15.7067 114.744 14.4907 113.08 13.68C111.459 12.8267 109.645 12.4 107.64 12.4C105.976 12.4 104.461 12.656 103.096 13.168C101.773 13.68 100.643 14.4267 99.704 15.408C98.7654 16.3893 98.04 17.5627 97.528 18.928C97.016 20.2933 96.76 21.8507 96.76 23.6C96.76 25.264 97.016 26.8 97.528 28.208C98.04 29.5733 98.7654 30.7467 99.704 31.728C100.643 32.7093 101.752 33.4773 103.032 34.032C104.355 34.544 105.827 34.8 107.448 34.8C109.155 34.8 110.819 34.5227 112.44 33.968C114.061 33.3707 115.789 32.368 117.624 30.96L126.072 41.328C123.341 43.1627 120.227 44.5707 116.728 45.552C113.229 46.5333 109.837 47.024 106.552 47.024ZM112.952 39.408V22.384H126.072V41.328L112.952 39.408Z" fill="white"/>
<path d="M131.852 46V1.19999H153.42C157.601 1.19999 161.207 1.88266 164.236 3.24799C167.308 4.61333 169.676 6.57599 171.34 9.13599C173.004 11.6533 173.836 14.64 173.836 18.096C173.836 21.552 173.004 24.5387 171.34 27.056C169.676 29.5307 167.308 31.4293 164.236 32.752C161.207 34.0747 157.601 34.736 153.42 34.736H140.236L146.956 28.528V46H131.852ZM158.668 46L147.66 29.68H163.66L174.796 46H158.668ZM146.956 30.192L140.236 23.344H152.46C154.551 23.344 156.087 22.8747 157.068 21.936C158.092 20.9973 158.604 19.7173 158.604 18.096C158.604 16.4747 158.092 15.1947 157.068 14.256C156.087 13.3173 154.551 12.848 152.46 12.848H140.236L146.956 6V30.192Z" fill="white"/>
<path d="M13.824 71.84H33.792V82.72H13.824V71.84ZM14.848 88.608H37.248V100H0V55.2H36.416V66.592H14.848V88.608Z" fill="white"/>
<path d="M59.7665 101.024C56.0118 101.024 52.3852 100.597 48.8865 99.744C45.3878 98.8907 42.5078 97.7813 40.2465 96.416L45.1105 85.408C47.2438 86.6453 49.6118 87.648 52.2145 88.416C54.8598 89.1413 57.4198 89.504 59.8945 89.504C61.3452 89.504 62.4758 89.4187 63.2865 89.248C64.1398 89.0347 64.7585 88.7573 65.1425 88.416C65.5265 88.032 65.7185 87.584 65.7185 87.072C65.7185 86.2613 65.2705 85.6213 64.3745 85.152C63.4785 84.6827 62.2838 84.2987 60.7905 84C59.3398 83.6587 57.7398 83.3173 55.9905 82.976C54.2412 82.592 52.4705 82.1013 50.6785 81.504C48.9292 80.9067 47.3078 80.1173 45.8145 79.136C44.3638 78.1547 43.1905 76.8747 42.2945 75.296C41.3985 73.6747 40.9505 71.6693 40.9505 69.28C40.9505 66.5067 41.7185 63.9893 43.2545 61.728C44.8332 59.424 47.1585 57.5893 50.2305 56.224C53.3452 54.8587 57.2065 54.176 61.8145 54.176C64.8438 54.176 67.8305 54.496 70.7745 55.136C73.7185 55.776 76.3638 56.7573 78.7105 58.08L74.1665 69.024C71.9478 67.9147 69.7932 67.0827 67.7025 66.528C65.6545 65.9733 63.6492 65.696 61.6865 65.696C60.2358 65.696 59.0838 65.824 58.2305 66.08C57.3772 66.336 56.7585 66.6773 56.3745 67.104C56.0332 67.5307 55.8625 68 55.8625 68.512C55.8625 69.28 56.3105 69.8987 57.2065 70.368C58.1025 70.7947 59.2758 71.1573 60.7265 71.456C62.2198 71.7547 63.8412 72.0747 65.5905 72.416C67.3825 72.7573 69.1532 73.2267 70.9025 73.824C72.6518 74.4213 74.2518 75.2107 75.7025 76.192C77.1958 77.1733 78.3905 78.4533 79.2865 80.032C80.1825 81.6107 80.6305 83.5733 80.6305 85.92C80.6305 88.6507 79.8412 91.168 78.2625 93.472C76.7265 95.7333 74.4225 97.568 71.3505 98.976C68.2785 100.341 64.4172 101.024 59.7665 101.024Z" fill="white"/>
<path d="M101.829 101.024C98.0743 101.024 94.4477 100.597 90.949 99.744C87.4503 98.8907 84.5703 97.7813 82.309 96.416L87.173 85.408C89.3063 86.6453 91.6743 87.648 94.277 88.416C96.9223 89.1413 99.4823 89.504 101.957 89.504C103.408 89.504 104.538 89.4187 105.349 89.248C106.202 89.0347 106.821 88.7573 107.205 88.416C107.589 88.032 107.781 87.584 107.781 87.072C107.781 86.2613 107.333 85.6213 106.437 85.152C105.541 84.6827 104.346 84.2987 102.853 84C101.402 83.6587 99.8023 83.3173 98.053 82.976C96.3037 82.592 94.533 82.1013 92.741 81.504C90.9917 80.9067 89.3703 80.1173 87.877 79.136C86.4263 78.1547 85.253 76.8747 84.357 75.296C83.461 73.6747 83.013 71.6693 83.013 69.28C83.013 66.5067 83.781 63.9893 85.317 61.728C86.8957 59.424 89.221 57.5893 92.293 56.224C95.4077 54.8587 99.269 54.176 103.877 54.176C106.906 54.176 109.893 54.496 112.837 55.136C115.781 55.776 118.426 56.7573 120.773 58.08L116.229 69.024C114.01 67.9147 111.856 67.0827 109.765 66.528C107.717 65.9733 105.712 65.696 103.749 65.696C102.298 65.696 101.146 65.824 100.293 66.08C99.4397 66.336 98.821 66.6773 98.437 67.104C98.0957 67.5307 97.925 68 97.925 68.512C97.925 69.28 98.373 69.8987 99.269 70.368C100.165 70.7947 101.338 71.1573 102.789 71.456C104.282 71.7547 105.904 72.0747 107.653 72.416C109.445 72.7573 111.216 73.2267 112.965 73.824C114.714 74.4213 116.314 75.2107 117.765 76.192C119.258 77.1733 120.453 78.4533 121.349 80.032C122.245 81.6107 122.693 83.5733 122.693 85.92C122.693 88.6507 121.904 91.168 120.325 93.472C118.789 95.7333 116.485 97.568 113.413 98.976C110.341 100.341 106.48 101.024 101.829 101.024Z" fill="white"/>
<path d="M150.676 101.024C147.049 101.024 143.678 100.448 140.564 99.296C137.492 98.144 134.825 96.5227 132.564 94.432C130.302 92.2987 128.532 89.8027 127.252 86.944C126.014 84.0853 125.396 80.9707 125.396 77.6C125.396 74.1867 126.014 71.072 127.252 68.256C128.532 65.3973 130.302 62.9227 132.564 60.832C134.825 58.6987 137.492 57.056 140.564 55.904C143.678 54.752 147.049 54.176 150.676 54.176C154.345 54.176 157.716 54.752 160.788 55.904C163.86 57.056 166.526 58.6987 168.788 60.832C171.049 62.9227 172.798 65.3973 174.036 68.256C175.316 71.072 175.956 74.1867 175.956 77.6C175.956 80.9707 175.316 84.0853 174.036 86.944C172.798 89.8027 171.049 92.2987 168.788 94.432C166.526 96.5227 163.86 98.144 160.788 99.296C157.716 100.448 154.345 101.024 150.676 101.024ZM150.676 88.8C152.084 88.8 153.385 88.544 154.579 88.032C155.817 87.52 156.883 86.7947 157.779 85.856C158.718 84.8747 159.444 83.7013 159.956 82.336C160.467 80.928 160.723 79.3493 160.723 77.6C160.723 75.8507 160.467 74.2933 159.956 72.928C159.444 71.52 158.718 70.3467 157.779 69.408C156.883 68.4267 155.817 67.68 154.579 67.168C153.385 66.656 152.084 66.4 150.676 66.4C149.268 66.4 147.945 66.656 146.708 67.168C145.513 67.68 144.446 68.4267 143.508 69.408C142.612 70.3467 141.908 71.52 141.396 72.928C140.884 74.2933 140.628 75.8507 140.628 77.6C140.628 79.3493 140.884 80.928 141.396 82.336C141.908 83.7013 142.612 84.8747 143.508 85.856C144.446 86.7947 145.513 87.52 146.708 88.032C147.945 88.544 149.268 88.8 150.676 88.8Z" fill="white"/>
</svg>
