<svg width="178" height="200" viewBox="0 0 178 200" fill="none" xmlns="http://www.w3.org/2000/svg">
<path d="M3.67202 45L23.256 0.200012H32.216L51.8 45H36.184L21.72 7.36802H27.608L13.144 45H3.67202ZM13.912 37.192L17.752 26.312H33.88L37.72 37.192H13.912Z" fill="white"/>
<path d="M16.472 67.84H36.44V78.72H16.472V67.84ZM17.496 84.608H39.896V96H2.64802V51.2H39.064V62.592H17.496V84.608Z" fill="#FFD700"/>
<path d="M41.238 96L61.206 68.096L61.142 78.656L41.814 51.2H58.774L70.038 67.84L62.806 67.904L73.814 51.2H90.07L70.742 78.08V67.584L91.03 96H73.75L62.486 78.592L69.462 78.528L58.454 96H41.238Z" fill="#FFD700"/>
<path d="M92.8355 96V51.2H114.404C118.585 51.2 122.19 51.8827 125.22 53.248C128.292 54.6133 130.66 56.576 132.324 59.136C133.988 61.6533 134.82 64.64 134.82 68.096C134.82 71.552 133.988 74.5387 132.324 77.056C130.66 79.5733 128.292 81.536 125.22 82.944C122.19 84.3093 118.585 84.992 114.404 84.992H101.22L107.94 78.528V96H92.8355ZM107.94 80.192L101.22 73.344H113.444C115.534 73.344 117.07 72.8747 118.052 71.936C119.076 70.9973 119.588 69.7173 119.588 68.096C119.588 66.4747 119.076 65.1947 118.052 64.256C117.07 63.3173 115.534 62.848 113.444 62.848H101.22L107.94 56V80.192Z" fill="#FFD700"/>
<path d="M153.597 67.84H173.565V78.72H153.597V67.84ZM154.621 84.608H177.021V96H139.773V51.2H176.189V62.592H154.621V84.608Z" fill="#FFD700"/>
<path d="M2.64802 147V102.2H24.216C28.3974 102.2 32.0027 102.883 35.032 104.248C38.104 105.613 40.472 107.576 42.136 110.136C43.8 112.653 44.632 115.64 44.632 119.096C44.632 122.552 43.8 125.539 42.136 128.056C40.472 130.531 38.104 132.429 35.032 133.752C32.0027 135.075 28.3974 135.736 24.216 135.736H11.032L17.752 129.528V147H2.64802ZM29.464 147L18.456 130.68H34.456L45.592 147H29.464ZM17.752 131.192L11.032 124.344H23.256C25.3467 124.344 26.8827 123.875 27.864 122.936C28.888 121.997 29.4 120.717 29.4 119.096C29.4 117.475 28.888 116.195 27.864 115.256C26.8827 114.317 25.3467 113.848 23.256 113.848H11.032L17.752 107V131.192Z" fill="#FFD700"/>
<path d="M50.3355 147V102.2H65.4395V147H50.3355Z" fill="#FFD700"/>
<path d="M86.5345 118.84H119V129.72H86.5345V118.84ZM87.5585 135.608H127V147H72.7105V102.2H126V113.592H87.5585V135.608ZM83.6145 98.552L91.8065 88.312H104.095L112.287 98.552H103.327L94.2385 90.232H101.663L92.5745 98.552H83.6145Z" fill="#FFD700"/>
<path d="M132.861 147V102.2H145.277L168.061 129.464H162.301V102.2H177.021V147H164.605L141.821 119.736H147.581V147H132.861Z" fill="#FFD700"/>
<path d="M25.816 199.024C22.232 199.024 18.904 198.469 15.832 197.36C12.8027 196.208 10.1574 194.587 7.89602 192.496C5.67735 190.405 3.94935 187.931 2.71202 185.072C1.47469 182.213 0.856018 179.056 0.856018 175.6C0.856018 172.144 1.47469 168.987 2.71202 166.128C3.94935 163.269 5.67735 160.795 7.89602 158.704C10.1574 156.613 12.8027 155.013 15.832 153.904C18.904 152.752 22.232 152.176 25.816 152.176C30.2107 152.176 34.0933 152.944 37.464 154.48C40.8773 156.016 43.6934 158.235 45.912 161.136L36.376 169.648C35.0534 167.984 33.5814 166.704 31.96 165.808C30.3813 164.869 28.5894 164.4 26.584 164.4C25.0054 164.4 23.576 164.656 22.296 165.168C21.016 165.68 19.9067 166.427 18.968 167.408C18.072 168.389 17.368 169.584 16.856 170.992C16.344 172.357 16.088 173.893 16.088 175.6C16.088 177.307 16.344 178.864 16.856 180.272C17.368 181.637 18.072 182.811 18.968 183.792C19.9067 184.773 21.016 185.52 22.296 186.032C23.576 186.544 25.0054 186.8 26.584 186.8C28.5894 186.8 30.3813 186.352 31.96 185.456C33.5814 184.517 35.0534 183.216 36.376 181.552L45.912 190.064C43.6934 192.923 40.8773 195.141 37.464 196.72C34.0933 198.256 30.2107 199.024 25.816 199.024Z" fill="#FFD700"/>
<path d="M50.273 198V153.2H65.377V198H50.273Z" fill="#FFD700"/>
<path d="M67.784 198L87.368 153.2H102.216L121.8 198H106.184L91.72 160.368H97.608L83.144 198H67.784ZM79.432 190.192L83.272 179.312H103.88L107.72 190.192H79.432Z" fill="#FFD700"/>
</svg>
