<svg width="111" height="77" viewBox="0 0 111 77" fill="none" xmlns="http://www.w3.org/2000/svg">
<path d="M83.1046 76.9116H76.6558V63.4698H77.5273C79.5607 63.4698 81.1003 62.9954 82.146 62.0465C83.1918 61.0977 83.7146 59.7535 83.7146 58.014V50.5023C83.7146 47.6031 84.1794 45.3628 85.109 43.7814C86.0966 42.1473 87.5781 40.9876 89.5534 40.3023C91.5287 39.6171 94.085 39.169 97.2222 38.9581V40.8558C94.085 40.645 91.5287 40.1969 89.5534 39.5116C87.5781 38.8264 86.0966 37.693 85.109 36.1116C84.1794 34.4775 83.7146 32.2108 83.7146 29.3116V21.8C83.7146 20.0605 83.1918 18.7163 82.146 17.7674C81.1003 16.8186 79.5607 16.3442 77.5273 16.3442H76.6558V2.90231H83.1046C89.8439 2.90231 94.8983 4.37828 98.2679 7.33022C101.696 10.2822 103.41 14.4201 103.41 19.7442V29.707C103.41 30.8667 103.758 31.7364 104.455 32.3163C105.152 32.8961 106.053 33.186 107.157 33.186H110.033V46.6279H107.157C106.053 46.6279 105.152 46.9178 104.455 47.4977C103.758 48.0248 103.41 48.8946 103.41 50.107V60.0698C103.41 65.3938 101.696 69.5318 98.2679 72.4837C94.8983 75.4357 89.8439 76.9116 83.1046 76.9116Z" fill="#FFD700"/>
<path d="M41.3582 76.9116C34.7785 76.9271 27.9402 76.9116 21.5771 74.0093C17.3687 72.0898 15.4995 70.8997 11.7595 67.3834C8.0914 63.8671 5.21446 59.7409 3.12867 55.0047C1.04289 50.1967 0 44.9223 0 39.1814C0 33.4405 1.04289 28.202 3.12867 23.4658C5.21446 18.6578 8.0914 14.4957 11.7595 10.9794C15.4995 7.46313 19.8869 4.7721 24.9215 2.90631C30.0281 0.968772 35.5662 0 41.5358 0C48.5124 0 51.2786 0.104921 57.321 1.45116C61.0828 2.28931 68.2047 5.07907 69.6558 5.80465C69.6558 5.80465 65.3887 10.4521 64.5768 14.5116C63.1256 21.7674 65.3023 28.2977 65.3023 28.2977C60.9489 23.2186 57.321 21.4777 55.1442 20.3163C50.4859 17.8308 46.2109 17.6532 42.6147 17.6532C39.522 17.6532 36.681 18.1555 34.0918 19.1601C31.5025 20.1648 29.2729 21.6359 27.4029 23.5734C25.6048 25.4392 24.1663 27.6997 23.0875 30.3548C22.0805 33.01 21.5771 35.9522 21.5771 39.1814C21.5771 42.4106 22.0805 45.3528 23.0875 48.008C24.1663 50.6631 25.6048 52.9595 27.4029 54.897C29.2729 56.7628 31.5025 58.198 34.0918 59.2027C36.681 60.2073 39.522 60.7097 42.6147 60.7097C46.2109 60.7097 49.201 60.563 54.4186 58.0465C60.9489 54.897 64.5768 49.3395 66.7535 44.2605V76.9116C66.7535 76.9116 50.613 76.89 41.3582 76.9116Z" fill="#FF4500"/>
</svg>
